M48
; DRILL file {KiCad 7.0.1-0} date 2023 April 01, Saturday 23:00:18
; FORMAT={-:-/ absolute / inch / decimal}
; #@! TF.CreationDate,2023-04-01T23:00:18-04:00
; #@! TF.GenerationSoftware,Kicad,Pcbnew,7.0.1-0
; #@! TF.FileFunction,Plated,1,2,PTH
FMAT,2
INCH
; #@! TA.AperFunction,Plated,PTH,ViaDrill
T1C0.0157
; #@! TA.AperFunction,Plated,PTH,ComponentDrill
T2C0.0374
; #@! TA.AperFunction,Plated,PTH,ComponentDrill
T3C0.1260
%
G90
G05
T1
X3.5039Y-2.0669
X3.5039Y-2.1654
X3.5039Y-2.2638
X3.5039Y-2.3622
X3.5039Y-2.4606
X3.5039Y-2.5591
X3.5039Y-2.6575
X3.5039Y-2.7559
X3.5039Y-2.8543
X3.7402Y-3.0906
X3.7992Y-2.4016
X3.8386Y-3.0906
X3.8878Y-2.0472
X3.8976Y-2.5394
X3.8976Y-2.7362
X3.937Y-3.0906
X3.9665Y-1.9882
X3.9961Y-2.313
X4.0157Y-1.9882
X4.0354Y-2.8543
X4.0354Y-3.0906
X4.0787Y-2.9055
X4.0846Y-2.5394
X4.1338Y-2.5827
X4.1339Y-2.6575
X4.1339Y-2.7559
X4.1339Y-3.0906
X4.1649Y-2.4523
X4.2323Y-2.6575
X4.2323Y-2.7559
X4.2323Y-3.0906
X4.2421Y-2.1654
X4.252Y-2.5827
X4.311Y-2.9724
X4.3307Y-3.0906
X4.3701Y-2.4409
X4.4291Y-2.5689
X4.4291Y-3.0906
X4.498Y-2.2146
X4.498Y-2.3622
X4.5276Y-3.0906
X4.7638Y-2.0669
X4.7638Y-2.1654
X4.7638Y-2.2638
X4.7638Y-2.3622
X4.7638Y-2.4606
X4.7638Y-2.5591
X4.7638Y-2.6575
X4.7638Y-2.7559
X4.7638Y-2.8543
T2
X4.1437Y-1.9291
X4.2421Y-1.9291
X4.3406Y-1.9291
X4.439Y-1.9291
T3
X3.5433Y-1.8701
X3.5433Y-3.0512
X4.7244Y-1.8701
X4.7244Y-3.0512
T0
M30
