%TF.GenerationSoftware,KiCad,Pcbnew,7.0.1-0*%
%TF.CreationDate,2023-04-01T23:00:14-04:00*%
%TF.ProjectId,Turbidometer,54757262-6964-46f6-9d65-7465722e6b69,rev?*%
%TF.SameCoordinates,Original*%
%TF.FileFunction,Copper,L2,Bot*%
%TF.FilePolarity,Positive*%
%FSLAX46Y46*%
G04 Gerber Fmt 4.6, Leading zero omitted, Abs format (unit mm)*
G04 Created by KiCad (PCBNEW 7.0.1-0) date 2023-04-01 23:00:14*
%MOMM*%
%LPD*%
G01*
G04 APERTURE LIST*
G04 Aperture macros list*
%AMRoundRect*
0 Rectangle with rounded corners*
0 $1 Rounding radius*
0 $2 $3 $4 $5 $6 $7 $8 $9 X,Y pos of 4 corners*
0 Add a 4 corners polygon primitive as box body*
4,1,4,$2,$3,$4,$5,$6,$7,$8,$9,$2,$3,0*
0 Add four circle primitives for the rounded corners*
1,1,$1+$1,$2,$3*
1,1,$1+$1,$4,$5*
1,1,$1+$1,$6,$7*
1,1,$1+$1,$8,$9*
0 Add four rect primitives between the rounded corners*
20,1,$1+$1,$2,$3,$4,$5,0*
20,1,$1+$1,$4,$5,$6,$7,0*
20,1,$1+$1,$6,$7,$8,$9,0*
20,1,$1+$1,$8,$9,$2,$3,0*%
G04 Aperture macros list end*
%TA.AperFunction,ComponentPad*%
%ADD10C,5.500000*%
%TD*%
%TA.AperFunction,ComponentPad*%
%ADD11RoundRect,0.250000X0.600000X0.725000X-0.600000X0.725000X-0.600000X-0.725000X0.600000X-0.725000X0*%
%TD*%
%TA.AperFunction,ComponentPad*%
%ADD12O,1.700000X1.950000*%
%TD*%
%TA.AperFunction,ViaPad*%
%ADD13C,0.800000*%
%TD*%
%TA.AperFunction,Conductor*%
%ADD14C,0.500000*%
%TD*%
%TA.AperFunction,Conductor*%
%ADD15C,1.000000*%
%TD*%
G04 APERTURE END LIST*
D10*
%TO.P,H2,1*%
%TO.N,N/C*%
X120000000Y-47500000D03*
%TD*%
%TO.P,H1,1*%
%TO.N,N/C*%
X90000000Y-47500000D03*
%TD*%
%TO.P,H4,1*%
%TO.N,N/C*%
X120000000Y-77500000D03*
%TD*%
%TO.P,H3,1*%
%TO.N,N/C*%
X90000000Y-77500000D03*
%TD*%
D11*
%TO.P,J2,1,Pin_1*%
%TO.N,GND*%
X112750000Y-49000000D03*
D12*
%TO.P,J2,2,Pin_2*%
%TO.N,+3V3*%
X110250000Y-49000000D03*
%TO.P,J2,3,Pin_3*%
%TO.N,SDA-VCC*%
X107750000Y-49000000D03*
%TO.P,J2,4,Pin_4*%
%TO.N,SCL-VCC*%
X105250000Y-49000000D03*
%TD*%
D13*
%TO.N,+3V3*%
X98750000Y-52000000D03*
%TO.N,GND*%
X103600000Y-73800000D03*
X89000000Y-62500000D03*
X105000000Y-78500000D03*
X89000000Y-52500000D03*
X109500000Y-75500000D03*
X105787500Y-62287500D03*
X99000000Y-64500000D03*
X95000000Y-78500000D03*
X121000000Y-55000000D03*
X99000000Y-69500000D03*
X102500000Y-78500000D03*
X112500000Y-65250000D03*
X100750000Y-50500000D03*
X115000000Y-78500000D03*
X105000000Y-67500000D03*
X121000000Y-70000000D03*
X107500000Y-78500000D03*
X105000000Y-70000000D03*
X97500000Y-78500000D03*
X108000000Y-65599500D03*
X107500000Y-70000000D03*
X96500000Y-61000000D03*
X102000000Y-50500000D03*
X101500000Y-58750000D03*
X89000000Y-57500000D03*
X112500000Y-78500000D03*
X107500000Y-67500000D03*
X102500000Y-72500000D03*
X121000000Y-67500000D03*
X121000000Y-57500000D03*
X114250000Y-56250000D03*
X110000000Y-78500000D03*
X121000000Y-62500000D03*
X100000000Y-78500000D03*
X121000000Y-60000000D03*
X121000000Y-72500000D03*
X89000000Y-55000000D03*
X89000000Y-60000000D03*
X89000000Y-67500000D03*
X89000000Y-72500000D03*
X89000000Y-70000000D03*
X89000000Y-65000000D03*
X121000000Y-52500000D03*
X104997882Y-65599500D03*
X121000000Y-65000000D03*
%TO.N,+3V0*%
X103750000Y-64500000D03*
X107750000Y-55000000D03*
X111000000Y-62000000D03*
X114250000Y-60000000D03*
%TD*%
D14*
%TO.N,+3V3*%
X98750000Y-52000000D02*
X107250000Y-52000000D01*
X107250000Y-52000000D02*
X110250000Y-49000000D01*
%TO.N,+3V0*%
X109250000Y-55000000D02*
X107750000Y-55000000D01*
D15*
X111000000Y-62000000D02*
X108500000Y-64500000D01*
D14*
X114250000Y-60000000D02*
X109250000Y-55000000D01*
D15*
X108500000Y-64500000D02*
X103750000Y-64500000D01*
%TD*%
%TA.AperFunction,Conductor*%
%TO.N,GND*%
G36*
X117658265Y-45013822D02*
G01*
X117702475Y-45052206D01*
X117724145Y-45106595D01*
X117718446Y-45164864D01*
X117686648Y-45214023D01*
X117636686Y-45261349D01*
X117408496Y-45529995D01*
X117210695Y-45821728D01*
X117045592Y-46133144D01*
X116915127Y-46460586D01*
X116820833Y-46800204D01*
X116763808Y-47148049D01*
X116744725Y-47499999D01*
X116763808Y-47851950D01*
X116820833Y-48199795D01*
X116915127Y-48539413D01*
X117045592Y-48866855D01*
X117210695Y-49178271D01*
X117408496Y-49470004D01*
X117636686Y-49738650D01*
X117892578Y-49981045D01*
X117899736Y-49986486D01*
X118173182Y-50194354D01*
X118475202Y-50376074D01*
X118795099Y-50524074D01*
X119025073Y-50601561D01*
X119129121Y-50636619D01*
X119204893Y-50653297D01*
X119473355Y-50712391D01*
X119785652Y-50746355D01*
X119823762Y-50750500D01*
X119823763Y-50750500D01*
X120176237Y-50750500D01*
X120176238Y-50750500D01*
X120210608Y-50746761D01*
X120526645Y-50712391D01*
X120870878Y-50636619D01*
X121204901Y-50524074D01*
X121524798Y-50376074D01*
X121826818Y-50194354D01*
X122107420Y-49981046D01*
X122290725Y-49807409D01*
X122340246Y-49778701D01*
X122397385Y-49775292D01*
X122449968Y-49797911D01*
X122486788Y-49841738D01*
X122500000Y-49897434D01*
X122500000Y-75102566D01*
X122486788Y-75158262D01*
X122449968Y-75202089D01*
X122397385Y-75224708D01*
X122340246Y-75221299D01*
X122290725Y-75192590D01*
X122195688Y-75102566D01*
X122107420Y-75018954D01*
X121826818Y-74805646D01*
X121826819Y-74805646D01*
X121826817Y-74805645D01*
X121524795Y-74623924D01*
X121204903Y-74475927D01*
X121204901Y-74475926D01*
X121122758Y-74448249D01*
X120870878Y-74363380D01*
X120526645Y-74287609D01*
X120176238Y-74249500D01*
X120176237Y-74249500D01*
X119823763Y-74249500D01*
X119823762Y-74249500D01*
X119473354Y-74287609D01*
X119129121Y-74363380D01*
X118795096Y-74475927D01*
X118475204Y-74623924D01*
X118173182Y-74805645D01*
X117892578Y-75018954D01*
X117636686Y-75261349D01*
X117408496Y-75529995D01*
X117210695Y-75821728D01*
X117045592Y-76133144D01*
X116915127Y-76460586D01*
X116820833Y-76800204D01*
X116763808Y-77148049D01*
X116744725Y-77500000D01*
X116763808Y-77851950D01*
X116820833Y-78199795D01*
X116915127Y-78539413D01*
X117045592Y-78866855D01*
X117210695Y-79178271D01*
X117408496Y-79470004D01*
X117636686Y-79738650D01*
X117686648Y-79785977D01*
X117718446Y-79835136D01*
X117724145Y-79893405D01*
X117702475Y-79947794D01*
X117658265Y-79986178D01*
X117601373Y-80000000D01*
X92398627Y-80000000D01*
X92341735Y-79986178D01*
X92297525Y-79947794D01*
X92275855Y-79893405D01*
X92281554Y-79835136D01*
X92313352Y-79785977D01*
X92328591Y-79771541D01*
X92363314Y-79738650D01*
X92591501Y-79470008D01*
X92789305Y-79178269D01*
X92954407Y-78866855D01*
X93084872Y-78539413D01*
X93179166Y-78199795D01*
X93179165Y-78199795D01*
X93179168Y-78199788D01*
X93236191Y-77851957D01*
X93255274Y-77500000D01*
X93236191Y-77148043D01*
X93179168Y-76800212D01*
X93179166Y-76800204D01*
X93084872Y-76460586D01*
X92954407Y-76133144D01*
X92789304Y-75821728D01*
X92591503Y-75529995D01*
X92591501Y-75529992D01*
X92363314Y-75261350D01*
X92290725Y-75192590D01*
X92107421Y-75018954D01*
X91826817Y-74805645D01*
X91524795Y-74623924D01*
X91204903Y-74475927D01*
X91204901Y-74475926D01*
X91122758Y-74448249D01*
X90870878Y-74363380D01*
X90526645Y-74287609D01*
X90176238Y-74249500D01*
X90176237Y-74249500D01*
X89823763Y-74249500D01*
X89823762Y-74249500D01*
X89473354Y-74287609D01*
X89129121Y-74363380D01*
X88795096Y-74475927D01*
X88475204Y-74623924D01*
X88173182Y-74805645D01*
X87892584Y-75018950D01*
X87709275Y-75192590D01*
X87659754Y-75221299D01*
X87602615Y-75224708D01*
X87550032Y-75202089D01*
X87513212Y-75158262D01*
X87500000Y-75102566D01*
X87500000Y-64550937D01*
X102745630Y-64550937D01*
X102776443Y-64752071D01*
X102847113Y-64942886D01*
X102954745Y-65115568D01*
X102954748Y-65115571D01*
X103094941Y-65263053D01*
X103261951Y-65379295D01*
X103448942Y-65459540D01*
X103648259Y-65500500D01*
X108485721Y-65500500D01*
X108488862Y-65500539D01*
X108576363Y-65502757D01*
X108634432Y-65492348D01*
X108643736Y-65491043D01*
X108702438Y-65485074D01*
X108731467Y-65475965D01*
X108746700Y-65472226D01*
X108776653Y-65466858D01*
X108831426Y-65444978D01*
X108840301Y-65441819D01*
X108857675Y-65436367D01*
X108896588Y-65424159D01*
X108923194Y-65409390D01*
X108937362Y-65402662D01*
X108965617Y-65391377D01*
X109014879Y-65358909D01*
X109022910Y-65354043D01*
X109074502Y-65325409D01*
X109097587Y-65305589D01*
X109110114Y-65296144D01*
X109135519Y-65279402D01*
X109177251Y-65237668D01*
X109184123Y-65231300D01*
X109228895Y-65192866D01*
X109247524Y-65168798D01*
X109257883Y-65157036D01*
X111743340Y-62671580D01*
X111839698Y-62553407D01*
X111933909Y-62373049D01*
X111989887Y-62177418D01*
X112005337Y-61974524D01*
X111979630Y-61772672D01*
X111913816Y-61580128D01*
X111810591Y-61404773D01*
X111674179Y-61253787D01*
X111628979Y-61220596D01*
X111510166Y-61133349D01*
X111325269Y-61048394D01*
X111127053Y-61002396D01*
X110923638Y-60997242D01*
X110723345Y-61033142D01*
X110534380Y-61108623D01*
X110364481Y-61220596D01*
X108121899Y-63463181D01*
X108081671Y-63490061D01*
X108034218Y-63499500D01*
X103699258Y-63499500D01*
X103638579Y-63505670D01*
X103547559Y-63514926D01*
X103353412Y-63575841D01*
X103175500Y-63674589D01*
X103021104Y-63807135D01*
X102896551Y-63968042D01*
X102806940Y-64150727D01*
X102755937Y-64347716D01*
X102745630Y-64550937D01*
X87500000Y-64550937D01*
X87500000Y-55000000D01*
X106844540Y-55000000D01*
X106864326Y-55188257D01*
X106922820Y-55368284D01*
X107017466Y-55532216D01*
X107144129Y-55672889D01*
X107297269Y-55784151D01*
X107470197Y-55861144D01*
X107655352Y-55900500D01*
X107655354Y-55900500D01*
X107844646Y-55900500D01*
X107844648Y-55900500D01*
X107968084Y-55874262D01*
X108029803Y-55861144D01*
X108202730Y-55784151D01*
X108216449Y-55774183D01*
X108251018Y-55756569D01*
X108289337Y-55750500D01*
X108887770Y-55750500D01*
X108935223Y-55759939D01*
X108975451Y-55786819D01*
X113337228Y-60148596D01*
X113367478Y-60197958D01*
X113422821Y-60368285D01*
X113517466Y-60532216D01*
X113644129Y-60672889D01*
X113797269Y-60784151D01*
X113970197Y-60861144D01*
X114155352Y-60900500D01*
X114155354Y-60900500D01*
X114344646Y-60900500D01*
X114344648Y-60900500D01*
X114468084Y-60874262D01*
X114529803Y-60861144D01*
X114702730Y-60784151D01*
X114855871Y-60672888D01*
X114982533Y-60532216D01*
X115077179Y-60368284D01*
X115135674Y-60188256D01*
X115155460Y-60000000D01*
X115135674Y-59811744D01*
X115077179Y-59631716D01*
X115077179Y-59631715D01*
X114982533Y-59467783D01*
X114855870Y-59327110D01*
X114702730Y-59215848D01*
X114529803Y-59138855D01*
X114464669Y-59125011D01*
X114431283Y-59112694D01*
X114402769Y-59091402D01*
X109825728Y-54514360D01*
X109813946Y-54500727D01*
X109799609Y-54481469D01*
X109761666Y-54449631D01*
X109753691Y-54442323D01*
X109749782Y-54438414D01*
X109749777Y-54438409D01*
X109725423Y-54419152D01*
X109722647Y-54416890D01*
X109664251Y-54367890D01*
X109647821Y-54357422D01*
X109578691Y-54325186D01*
X109575447Y-54323615D01*
X109507306Y-54289394D01*
X109488903Y-54282997D01*
X109414211Y-54267574D01*
X109410692Y-54266794D01*
X109336490Y-54249208D01*
X109317121Y-54247229D01*
X109240869Y-54249448D01*
X109237263Y-54249500D01*
X108289337Y-54249500D01*
X108251018Y-54243431D01*
X108216450Y-54225817D01*
X108202728Y-54215847D01*
X108029802Y-54138855D01*
X107844648Y-54099500D01*
X107844646Y-54099500D01*
X107655354Y-54099500D01*
X107655352Y-54099500D01*
X107470197Y-54138855D01*
X107297269Y-54215848D01*
X107144129Y-54327110D01*
X107017466Y-54467783D01*
X106922820Y-54631715D01*
X106864326Y-54811742D01*
X106844540Y-55000000D01*
X87500000Y-55000000D01*
X87500000Y-51999999D01*
X97844540Y-51999999D01*
X97864326Y-52188257D01*
X97922820Y-52368284D01*
X98017466Y-52532216D01*
X98144129Y-52672889D01*
X98297269Y-52784151D01*
X98470197Y-52861144D01*
X98655352Y-52900500D01*
X98655354Y-52900500D01*
X98844646Y-52900500D01*
X98844648Y-52900500D01*
X98968083Y-52874262D01*
X99029803Y-52861144D01*
X99202730Y-52784151D01*
X99216449Y-52774183D01*
X99251018Y-52756569D01*
X99289337Y-52750500D01*
X107186294Y-52750500D01*
X107204264Y-52751809D01*
X107208320Y-52752402D01*
X107228023Y-52755289D01*
X107277368Y-52750972D01*
X107288176Y-52750500D01*
X107293706Y-52750500D01*
X107293709Y-52750500D01*
X107324550Y-52746894D01*
X107328031Y-52746539D01*
X107402797Y-52739999D01*
X107402797Y-52739998D01*
X107404052Y-52739889D01*
X107423062Y-52735674D01*
X107424250Y-52735241D01*
X107424255Y-52735241D01*
X107494820Y-52709557D01*
X107498095Y-52708419D01*
X107569334Y-52684814D01*
X107569336Y-52684812D01*
X107570536Y-52684415D01*
X107588063Y-52675929D01*
X107589112Y-52675238D01*
X107589117Y-52675237D01*
X107651806Y-52634005D01*
X107654798Y-52632099D01*
X107718656Y-52592712D01*
X107718656Y-52592711D01*
X107719729Y-52592050D01*
X107734824Y-52579753D01*
X107735692Y-52578832D01*
X107735696Y-52578830D01*
X107787185Y-52524253D01*
X107789631Y-52521735D01*
X109835188Y-50476177D01*
X109890773Y-50444085D01*
X109954961Y-50444085D01*
X110014592Y-50460063D01*
X110250000Y-50480659D01*
X110485408Y-50460063D01*
X110713663Y-50398903D01*
X110927829Y-50299035D01*
X111121401Y-50163495D01*
X111268968Y-50015927D01*
X111315934Y-49986486D01*
X111371041Y-49980450D01*
X111423270Y-49999032D01*
X111462184Y-50038515D01*
X111557684Y-50193346D01*
X111681654Y-50317316D01*
X111830877Y-50409357D01*
X111997303Y-50464506D01*
X112100021Y-50475000D01*
X112500000Y-50475000D01*
X112500000Y-49250000D01*
X113000000Y-49250000D01*
X113000000Y-50474999D01*
X113399979Y-50474999D01*
X113502695Y-50464506D01*
X113669122Y-50409357D01*
X113818345Y-50317316D01*
X113942316Y-50193345D01*
X114034357Y-50044122D01*
X114089506Y-49877696D01*
X114100000Y-49774979D01*
X114100000Y-49250000D01*
X113000000Y-49250000D01*
X112500000Y-49250000D01*
X112500000Y-48750000D01*
X113000000Y-48750000D01*
X114099999Y-48750000D01*
X114099999Y-48225021D01*
X114089506Y-48122306D01*
X114047720Y-47996206D01*
X114044070Y-47931731D01*
X114073334Y-47874165D01*
X114127575Y-47839119D01*
X114192082Y-47836100D01*
X114257503Y-47850500D01*
X114396113Y-47850500D01*
X114396115Y-47850500D01*
X114465011Y-47843007D01*
X114533910Y-47835514D01*
X114709221Y-47776444D01*
X114867736Y-47681070D01*
X115002041Y-47553849D01*
X115105858Y-47400730D01*
X115174331Y-47228875D01*
X115204260Y-47046317D01*
X115194245Y-46861593D01*
X115144754Y-46683341D01*
X115058100Y-46519896D01*
X114938337Y-46378900D01*
X114938336Y-46378899D01*
X114791063Y-46266944D01*
X114623169Y-46189268D01*
X114442497Y-46149500D01*
X114303887Y-46149500D01*
X114303885Y-46149500D01*
X114166091Y-46164485D01*
X113990779Y-46223556D01*
X113832262Y-46318931D01*
X113697960Y-46446149D01*
X113594140Y-46599272D01*
X113525669Y-46771121D01*
X113495740Y-46953685D01*
X113505754Y-47138407D01*
X113555245Y-47316658D01*
X113572220Y-47348675D01*
X113586494Y-47413269D01*
X113565525Y-47476009D01*
X113515282Y-47519041D01*
X113450064Y-47530116D01*
X113399981Y-47525000D01*
X113000000Y-47525000D01*
X113000000Y-48750000D01*
X112500000Y-48750000D01*
X112500000Y-47525001D01*
X112100021Y-47525001D01*
X111997304Y-47535493D01*
X111830877Y-47590642D01*
X111681654Y-47682683D01*
X111557684Y-47806653D01*
X111462184Y-47961484D01*
X111423270Y-48000967D01*
X111371041Y-48019549D01*
X111315934Y-48013513D01*
X111268964Y-47984068D01*
X111121404Y-47836508D01*
X111121401Y-47836505D01*
X110927830Y-47700965D01*
X110713663Y-47601097D01*
X110652501Y-47584709D01*
X110485407Y-47539936D01*
X110250000Y-47519340D01*
X110014592Y-47539936D01*
X109786336Y-47601097D01*
X109572170Y-47700965D01*
X109378598Y-47836505D01*
X109211505Y-48003598D01*
X109101575Y-48160596D01*
X109057257Y-48199462D01*
X109000000Y-48213473D01*
X108942743Y-48199462D01*
X108898425Y-48160596D01*
X108788494Y-48003598D01*
X108621404Y-47836508D01*
X108621401Y-47836505D01*
X108427830Y-47700965D01*
X108213663Y-47601097D01*
X108152501Y-47584709D01*
X107985407Y-47539936D01*
X107750000Y-47519340D01*
X107514592Y-47539936D01*
X107286336Y-47601097D01*
X107072170Y-47700965D01*
X106878598Y-47836505D01*
X106711505Y-48003598D01*
X106601575Y-48160596D01*
X106557257Y-48199462D01*
X106500000Y-48213473D01*
X106442743Y-48199462D01*
X106398425Y-48160596D01*
X106288494Y-48003598D01*
X106121404Y-47836508D01*
X106121401Y-47836505D01*
X105927830Y-47700965D01*
X105713663Y-47601097D01*
X105652501Y-47584709D01*
X105485407Y-47539936D01*
X105250000Y-47519340D01*
X105014592Y-47539936D01*
X104786336Y-47601097D01*
X104572170Y-47700965D01*
X104378598Y-47836505D01*
X104211505Y-48003598D01*
X104075965Y-48197170D01*
X103976097Y-48411336D01*
X103914936Y-48639592D01*
X103899500Y-48816032D01*
X103899500Y-49183968D01*
X103914936Y-49360407D01*
X103976097Y-49588663D01*
X104075965Y-49802829D01*
X104211505Y-49996401D01*
X104378599Y-50163495D01*
X104572170Y-50299035D01*
X104786337Y-50398903D01*
X105014592Y-50460063D01*
X105250000Y-50480659D01*
X105485408Y-50460063D01*
X105713663Y-50398903D01*
X105927829Y-50299035D01*
X106121401Y-50163495D01*
X106288495Y-49996401D01*
X106398426Y-49839401D01*
X106442743Y-49800537D01*
X106500000Y-49786526D01*
X106557257Y-49800537D01*
X106601573Y-49839401D01*
X106711505Y-49996401D01*
X106878599Y-50163495D01*
X107072170Y-50299035D01*
X107286337Y-50398903D01*
X107475895Y-50449694D01*
X107531481Y-50481786D01*
X107563575Y-50537374D01*
X107563575Y-50601561D01*
X107531481Y-50657149D01*
X106975451Y-51213181D01*
X106935223Y-51240061D01*
X106887770Y-51249500D01*
X99289337Y-51249500D01*
X99251018Y-51243431D01*
X99216450Y-51225817D01*
X99202728Y-51215847D01*
X99029802Y-51138855D01*
X98844648Y-51099500D01*
X98844646Y-51099500D01*
X98655354Y-51099500D01*
X98655352Y-51099500D01*
X98470197Y-51138855D01*
X98297269Y-51215848D01*
X98144129Y-51327110D01*
X98017466Y-51467783D01*
X97922820Y-51631715D01*
X97864326Y-51811742D01*
X97844540Y-51999999D01*
X87500000Y-51999999D01*
X87500000Y-49897434D01*
X87513212Y-49841738D01*
X87550032Y-49797911D01*
X87602615Y-49775292D01*
X87659754Y-49778701D01*
X87709274Y-49807409D01*
X87892580Y-49981046D01*
X88173182Y-50194354D01*
X88475202Y-50376074D01*
X88795099Y-50524074D01*
X89025073Y-50601561D01*
X89129121Y-50636619D01*
X89204893Y-50653297D01*
X89473355Y-50712391D01*
X89785652Y-50746355D01*
X89823762Y-50750500D01*
X89823763Y-50750500D01*
X90176237Y-50750500D01*
X90176238Y-50750500D01*
X90210608Y-50746761D01*
X90526645Y-50712391D01*
X90870878Y-50636619D01*
X91204901Y-50524074D01*
X91524798Y-50376074D01*
X91826818Y-50194354D01*
X92107420Y-49981046D01*
X92363314Y-49738650D01*
X92591501Y-49470008D01*
X92785441Y-49183968D01*
X92789304Y-49178271D01*
X92954407Y-48866855D01*
X93084872Y-48539413D01*
X93179166Y-48199795D01*
X93179165Y-48199795D01*
X93179168Y-48199788D01*
X93236191Y-47851957D01*
X93255274Y-47500000D01*
X93236191Y-47148043D01*
X93179168Y-46800212D01*
X93146719Y-46683341D01*
X93084872Y-46460586D01*
X92954407Y-46133144D01*
X92789304Y-45821728D01*
X92591503Y-45529995D01*
X92591501Y-45529992D01*
X92363314Y-45261350D01*
X92313352Y-45214023D01*
X92281554Y-45164864D01*
X92275855Y-45106595D01*
X92297525Y-45052206D01*
X92341735Y-45013822D01*
X92398627Y-45000000D01*
X117601373Y-45000000D01*
X117658265Y-45013822D01*
G37*
%TD.AperFunction*%
%TD*%
M02*
