%TF.GenerationSoftware,KiCad,Pcbnew,7.0.1-0*%
%TF.CreationDate,2023-04-01T23:00:14-04:00*%
%TF.ProjectId,Turbidometer,54757262-6964-46f6-9d65-7465722e6b69,rev?*%
%TF.SameCoordinates,Original*%
%TF.FileFunction,Legend,Top*%
%TF.FilePolarity,Positive*%
%FSLAX46Y46*%
G04 Gerber Fmt 4.6, Leading zero omitted, Abs format (unit mm)*
G04 Created by KiCad (PCBNEW 7.0.1-0) date 2023-04-01 23:00:14*
%MOMM*%
%LPD*%
G01*
G04 APERTURE LIST*
%ADD10C,0.150000*%
%ADD11C,0.254000*%
%ADD12C,0.120000*%
%ADD13C,0.100000*%
%ADD14C,0.200000*%
G04 APERTURE END LIST*
D10*
%TO.C,J1*%
X97416666Y-51942619D02*
X97416666Y-52656904D01*
X97416666Y-52656904D02*
X97369047Y-52799761D01*
X97369047Y-52799761D02*
X97273809Y-52895000D01*
X97273809Y-52895000D02*
X97130952Y-52942619D01*
X97130952Y-52942619D02*
X97035714Y-52942619D01*
X98416666Y-52942619D02*
X97845238Y-52942619D01*
X98130952Y-52942619D02*
X98130952Y-51942619D01*
X98130952Y-51942619D02*
X98035714Y-52085476D01*
X98035714Y-52085476D02*
X97940476Y-52180714D01*
X97940476Y-52180714D02*
X97845238Y-52228333D01*
%TO.C,H2*%
X119238095Y-44212619D02*
X119238095Y-43212619D01*
X119238095Y-43688809D02*
X119809523Y-43688809D01*
X119809523Y-44212619D02*
X119809523Y-43212619D01*
X120238095Y-43307857D02*
X120285714Y-43260238D01*
X120285714Y-43260238D02*
X120380952Y-43212619D01*
X120380952Y-43212619D02*
X120619047Y-43212619D01*
X120619047Y-43212619D02*
X120714285Y-43260238D01*
X120714285Y-43260238D02*
X120761904Y-43307857D01*
X120761904Y-43307857D02*
X120809523Y-43403095D01*
X120809523Y-43403095D02*
X120809523Y-43498333D01*
X120809523Y-43498333D02*
X120761904Y-43641190D01*
X120761904Y-43641190D02*
X120190476Y-44212619D01*
X120190476Y-44212619D02*
X120809523Y-44212619D01*
%TO.C,IC2*%
X111523810Y-54962619D02*
X111523810Y-53962619D01*
X112571428Y-54867380D02*
X112523809Y-54915000D01*
X112523809Y-54915000D02*
X112380952Y-54962619D01*
X112380952Y-54962619D02*
X112285714Y-54962619D01*
X112285714Y-54962619D02*
X112142857Y-54915000D01*
X112142857Y-54915000D02*
X112047619Y-54819761D01*
X112047619Y-54819761D02*
X112000000Y-54724523D01*
X112000000Y-54724523D02*
X111952381Y-54534047D01*
X111952381Y-54534047D02*
X111952381Y-54391190D01*
X111952381Y-54391190D02*
X112000000Y-54200714D01*
X112000000Y-54200714D02*
X112047619Y-54105476D01*
X112047619Y-54105476D02*
X112142857Y-54010238D01*
X112142857Y-54010238D02*
X112285714Y-53962619D01*
X112285714Y-53962619D02*
X112380952Y-53962619D01*
X112380952Y-53962619D02*
X112523809Y-54010238D01*
X112523809Y-54010238D02*
X112571428Y-54057857D01*
X112952381Y-54057857D02*
X113000000Y-54010238D01*
X113000000Y-54010238D02*
X113095238Y-53962619D01*
X113095238Y-53962619D02*
X113333333Y-53962619D01*
X113333333Y-53962619D02*
X113428571Y-54010238D01*
X113428571Y-54010238D02*
X113476190Y-54057857D01*
X113476190Y-54057857D02*
X113523809Y-54153095D01*
X113523809Y-54153095D02*
X113523809Y-54248333D01*
X113523809Y-54248333D02*
X113476190Y-54391190D01*
X113476190Y-54391190D02*
X112904762Y-54962619D01*
X112904762Y-54962619D02*
X113523809Y-54962619D01*
%TO.C,C2*%
X101333333Y-66547380D02*
X101285714Y-66595000D01*
X101285714Y-66595000D02*
X101142857Y-66642619D01*
X101142857Y-66642619D02*
X101047619Y-66642619D01*
X101047619Y-66642619D02*
X100904762Y-66595000D01*
X100904762Y-66595000D02*
X100809524Y-66499761D01*
X100809524Y-66499761D02*
X100761905Y-66404523D01*
X100761905Y-66404523D02*
X100714286Y-66214047D01*
X100714286Y-66214047D02*
X100714286Y-66071190D01*
X100714286Y-66071190D02*
X100761905Y-65880714D01*
X100761905Y-65880714D02*
X100809524Y-65785476D01*
X100809524Y-65785476D02*
X100904762Y-65690238D01*
X100904762Y-65690238D02*
X101047619Y-65642619D01*
X101047619Y-65642619D02*
X101142857Y-65642619D01*
X101142857Y-65642619D02*
X101285714Y-65690238D01*
X101285714Y-65690238D02*
X101333333Y-65737857D01*
X101714286Y-65737857D02*
X101761905Y-65690238D01*
X101761905Y-65690238D02*
X101857143Y-65642619D01*
X101857143Y-65642619D02*
X102095238Y-65642619D01*
X102095238Y-65642619D02*
X102190476Y-65690238D01*
X102190476Y-65690238D02*
X102238095Y-65737857D01*
X102238095Y-65737857D02*
X102285714Y-65833095D01*
X102285714Y-65833095D02*
X102285714Y-65928333D01*
X102285714Y-65928333D02*
X102238095Y-66071190D01*
X102238095Y-66071190D02*
X101666667Y-66642619D01*
X101666667Y-66642619D02*
X102285714Y-66642619D01*
D11*
%TO.C,IC1*%
X99760237Y-74087526D02*
X99760237Y-72817526D01*
X101090714Y-73966573D02*
X101030238Y-74027050D01*
X101030238Y-74027050D02*
X100848809Y-74087526D01*
X100848809Y-74087526D02*
X100727857Y-74087526D01*
X100727857Y-74087526D02*
X100546428Y-74027050D01*
X100546428Y-74027050D02*
X100425476Y-73906097D01*
X100425476Y-73906097D02*
X100364999Y-73785145D01*
X100364999Y-73785145D02*
X100304523Y-73543240D01*
X100304523Y-73543240D02*
X100304523Y-73361811D01*
X100304523Y-73361811D02*
X100364999Y-73119907D01*
X100364999Y-73119907D02*
X100425476Y-72998954D01*
X100425476Y-72998954D02*
X100546428Y-72878002D01*
X100546428Y-72878002D02*
X100727857Y-72817526D01*
X100727857Y-72817526D02*
X100848809Y-72817526D01*
X100848809Y-72817526D02*
X101030238Y-72878002D01*
X101030238Y-72878002D02*
X101090714Y-72938478D01*
X102300238Y-74087526D02*
X101574523Y-74087526D01*
X101937380Y-74087526D02*
X101937380Y-72817526D01*
X101937380Y-72817526D02*
X101816428Y-72998954D01*
X101816428Y-72998954D02*
X101695476Y-73119907D01*
X101695476Y-73119907D02*
X101574523Y-73180383D01*
D10*
%TO.C,H1*%
X89238095Y-44212619D02*
X89238095Y-43212619D01*
X89238095Y-43688809D02*
X89809523Y-43688809D01*
X89809523Y-44212619D02*
X89809523Y-43212619D01*
X90809523Y-44212619D02*
X90238095Y-44212619D01*
X90523809Y-44212619D02*
X90523809Y-43212619D01*
X90523809Y-43212619D02*
X90428571Y-43355476D01*
X90428571Y-43355476D02*
X90333333Y-43450714D01*
X90333333Y-43450714D02*
X90238095Y-43498333D01*
%TO.C,C5*%
X110047380Y-63666666D02*
X110095000Y-63714285D01*
X110095000Y-63714285D02*
X110142619Y-63857142D01*
X110142619Y-63857142D02*
X110142619Y-63952380D01*
X110142619Y-63952380D02*
X110095000Y-64095237D01*
X110095000Y-64095237D02*
X109999761Y-64190475D01*
X109999761Y-64190475D02*
X109904523Y-64238094D01*
X109904523Y-64238094D02*
X109714047Y-64285713D01*
X109714047Y-64285713D02*
X109571190Y-64285713D01*
X109571190Y-64285713D02*
X109380714Y-64238094D01*
X109380714Y-64238094D02*
X109285476Y-64190475D01*
X109285476Y-64190475D02*
X109190238Y-64095237D01*
X109190238Y-64095237D02*
X109142619Y-63952380D01*
X109142619Y-63952380D02*
X109142619Y-63857142D01*
X109142619Y-63857142D02*
X109190238Y-63714285D01*
X109190238Y-63714285D02*
X109237857Y-63666666D01*
X109142619Y-62761904D02*
X109142619Y-63238094D01*
X109142619Y-63238094D02*
X109618809Y-63285713D01*
X109618809Y-63285713D02*
X109571190Y-63238094D01*
X109571190Y-63238094D02*
X109523571Y-63142856D01*
X109523571Y-63142856D02*
X109523571Y-62904761D01*
X109523571Y-62904761D02*
X109571190Y-62809523D01*
X109571190Y-62809523D02*
X109618809Y-62761904D01*
X109618809Y-62761904D02*
X109714047Y-62714285D01*
X109714047Y-62714285D02*
X109952142Y-62714285D01*
X109952142Y-62714285D02*
X110047380Y-62761904D01*
X110047380Y-62761904D02*
X110095000Y-62809523D01*
X110095000Y-62809523D02*
X110142619Y-62904761D01*
X110142619Y-62904761D02*
X110142619Y-63142856D01*
X110142619Y-63142856D02*
X110095000Y-63238094D01*
X110095000Y-63238094D02*
X110047380Y-63285713D01*
%TO.C,C4*%
X114547380Y-63166666D02*
X114595000Y-63214285D01*
X114595000Y-63214285D02*
X114642619Y-63357142D01*
X114642619Y-63357142D02*
X114642619Y-63452380D01*
X114642619Y-63452380D02*
X114595000Y-63595237D01*
X114595000Y-63595237D02*
X114499761Y-63690475D01*
X114499761Y-63690475D02*
X114404523Y-63738094D01*
X114404523Y-63738094D02*
X114214047Y-63785713D01*
X114214047Y-63785713D02*
X114071190Y-63785713D01*
X114071190Y-63785713D02*
X113880714Y-63738094D01*
X113880714Y-63738094D02*
X113785476Y-63690475D01*
X113785476Y-63690475D02*
X113690238Y-63595237D01*
X113690238Y-63595237D02*
X113642619Y-63452380D01*
X113642619Y-63452380D02*
X113642619Y-63357142D01*
X113642619Y-63357142D02*
X113690238Y-63214285D01*
X113690238Y-63214285D02*
X113737857Y-63166666D01*
X113975952Y-62309523D02*
X114642619Y-62309523D01*
X113595000Y-62547618D02*
X114309285Y-62785713D01*
X114309285Y-62785713D02*
X114309285Y-62166666D01*
%TO.C,C6*%
X107833333Y-74187380D02*
X107785714Y-74235000D01*
X107785714Y-74235000D02*
X107642857Y-74282619D01*
X107642857Y-74282619D02*
X107547619Y-74282619D01*
X107547619Y-74282619D02*
X107404762Y-74235000D01*
X107404762Y-74235000D02*
X107309524Y-74139761D01*
X107309524Y-74139761D02*
X107261905Y-74044523D01*
X107261905Y-74044523D02*
X107214286Y-73854047D01*
X107214286Y-73854047D02*
X107214286Y-73711190D01*
X107214286Y-73711190D02*
X107261905Y-73520714D01*
X107261905Y-73520714D02*
X107309524Y-73425476D01*
X107309524Y-73425476D02*
X107404762Y-73330238D01*
X107404762Y-73330238D02*
X107547619Y-73282619D01*
X107547619Y-73282619D02*
X107642857Y-73282619D01*
X107642857Y-73282619D02*
X107785714Y-73330238D01*
X107785714Y-73330238D02*
X107833333Y-73377857D01*
X108690476Y-73282619D02*
X108500000Y-73282619D01*
X108500000Y-73282619D02*
X108404762Y-73330238D01*
X108404762Y-73330238D02*
X108357143Y-73377857D01*
X108357143Y-73377857D02*
X108261905Y-73520714D01*
X108261905Y-73520714D02*
X108214286Y-73711190D01*
X108214286Y-73711190D02*
X108214286Y-74092142D01*
X108214286Y-74092142D02*
X108261905Y-74187380D01*
X108261905Y-74187380D02*
X108309524Y-74235000D01*
X108309524Y-74235000D02*
X108404762Y-74282619D01*
X108404762Y-74282619D02*
X108595238Y-74282619D01*
X108595238Y-74282619D02*
X108690476Y-74235000D01*
X108690476Y-74235000D02*
X108738095Y-74187380D01*
X108738095Y-74187380D02*
X108785714Y-74092142D01*
X108785714Y-74092142D02*
X108785714Y-73854047D01*
X108785714Y-73854047D02*
X108738095Y-73758809D01*
X108738095Y-73758809D02*
X108690476Y-73711190D01*
X108690476Y-73711190D02*
X108595238Y-73663571D01*
X108595238Y-73663571D02*
X108404762Y-73663571D01*
X108404762Y-73663571D02*
X108309524Y-73711190D01*
X108309524Y-73711190D02*
X108261905Y-73758809D01*
X108261905Y-73758809D02*
X108214286Y-73854047D01*
%TO.C,H4*%
X119238095Y-81712619D02*
X119238095Y-80712619D01*
X119238095Y-81188809D02*
X119809523Y-81188809D01*
X119809523Y-81712619D02*
X119809523Y-80712619D01*
X120714285Y-81045952D02*
X120714285Y-81712619D01*
X120476190Y-80665000D02*
X120238095Y-81379285D01*
X120238095Y-81379285D02*
X120857142Y-81379285D01*
%TO.C,C7*%
X101333333Y-71547380D02*
X101285714Y-71595000D01*
X101285714Y-71595000D02*
X101142857Y-71642619D01*
X101142857Y-71642619D02*
X101047619Y-71642619D01*
X101047619Y-71642619D02*
X100904762Y-71595000D01*
X100904762Y-71595000D02*
X100809524Y-71499761D01*
X100809524Y-71499761D02*
X100761905Y-71404523D01*
X100761905Y-71404523D02*
X100714286Y-71214047D01*
X100714286Y-71214047D02*
X100714286Y-71071190D01*
X100714286Y-71071190D02*
X100761905Y-70880714D01*
X100761905Y-70880714D02*
X100809524Y-70785476D01*
X100809524Y-70785476D02*
X100904762Y-70690238D01*
X100904762Y-70690238D02*
X101047619Y-70642619D01*
X101047619Y-70642619D02*
X101142857Y-70642619D01*
X101142857Y-70642619D02*
X101285714Y-70690238D01*
X101285714Y-70690238D02*
X101333333Y-70737857D01*
X101666667Y-70642619D02*
X102333333Y-70642619D01*
X102333333Y-70642619D02*
X101904762Y-71642619D01*
%TO.C,U1*%
X102462619Y-58761904D02*
X103272142Y-58761904D01*
X103272142Y-58761904D02*
X103367380Y-58714285D01*
X103367380Y-58714285D02*
X103415000Y-58666666D01*
X103415000Y-58666666D02*
X103462619Y-58571428D01*
X103462619Y-58571428D02*
X103462619Y-58380952D01*
X103462619Y-58380952D02*
X103415000Y-58285714D01*
X103415000Y-58285714D02*
X103367380Y-58238095D01*
X103367380Y-58238095D02*
X103272142Y-58190476D01*
X103272142Y-58190476D02*
X102462619Y-58190476D01*
X103462619Y-57190476D02*
X103462619Y-57761904D01*
X103462619Y-57476190D02*
X102462619Y-57476190D01*
X102462619Y-57476190D02*
X102605476Y-57571428D01*
X102605476Y-57571428D02*
X102700714Y-57666666D01*
X102700714Y-57666666D02*
X102748333Y-57761904D01*
%TO.C,C1*%
X105367380Y-58166666D02*
X105415000Y-58214285D01*
X105415000Y-58214285D02*
X105462619Y-58357142D01*
X105462619Y-58357142D02*
X105462619Y-58452380D01*
X105462619Y-58452380D02*
X105415000Y-58595237D01*
X105415000Y-58595237D02*
X105319761Y-58690475D01*
X105319761Y-58690475D02*
X105224523Y-58738094D01*
X105224523Y-58738094D02*
X105034047Y-58785713D01*
X105034047Y-58785713D02*
X104891190Y-58785713D01*
X104891190Y-58785713D02*
X104700714Y-58738094D01*
X104700714Y-58738094D02*
X104605476Y-58690475D01*
X104605476Y-58690475D02*
X104510238Y-58595237D01*
X104510238Y-58595237D02*
X104462619Y-58452380D01*
X104462619Y-58452380D02*
X104462619Y-58357142D01*
X104462619Y-58357142D02*
X104510238Y-58214285D01*
X104510238Y-58214285D02*
X104557857Y-58166666D01*
X105462619Y-57214285D02*
X105462619Y-57785713D01*
X105462619Y-57499999D02*
X104462619Y-57499999D01*
X104462619Y-57499999D02*
X104605476Y-57595237D01*
X104605476Y-57595237D02*
X104700714Y-57690475D01*
X104700714Y-57690475D02*
X104748333Y-57785713D01*
%TO.C,H3*%
X89238095Y-81712619D02*
X89238095Y-80712619D01*
X89238095Y-81188809D02*
X89809523Y-81188809D01*
X89809523Y-81712619D02*
X89809523Y-80712619D01*
X90190476Y-80712619D02*
X90809523Y-80712619D01*
X90809523Y-80712619D02*
X90476190Y-81093571D01*
X90476190Y-81093571D02*
X90619047Y-81093571D01*
X90619047Y-81093571D02*
X90714285Y-81141190D01*
X90714285Y-81141190D02*
X90761904Y-81188809D01*
X90761904Y-81188809D02*
X90809523Y-81284047D01*
X90809523Y-81284047D02*
X90809523Y-81522142D01*
X90809523Y-81522142D02*
X90761904Y-81617380D01*
X90761904Y-81617380D02*
X90714285Y-81665000D01*
X90714285Y-81665000D02*
X90619047Y-81712619D01*
X90619047Y-81712619D02*
X90333333Y-81712619D01*
X90333333Y-81712619D02*
X90238095Y-81665000D01*
X90238095Y-81665000D02*
X90190476Y-81617380D01*
%TO.C,J2*%
X108666666Y-52012619D02*
X108666666Y-52726904D01*
X108666666Y-52726904D02*
X108619047Y-52869761D01*
X108619047Y-52869761D02*
X108523809Y-52965000D01*
X108523809Y-52965000D02*
X108380952Y-53012619D01*
X108380952Y-53012619D02*
X108285714Y-53012619D01*
X109095238Y-52107857D02*
X109142857Y-52060238D01*
X109142857Y-52060238D02*
X109238095Y-52012619D01*
X109238095Y-52012619D02*
X109476190Y-52012619D01*
X109476190Y-52012619D02*
X109571428Y-52060238D01*
X109571428Y-52060238D02*
X109619047Y-52107857D01*
X109619047Y-52107857D02*
X109666666Y-52203095D01*
X109666666Y-52203095D02*
X109666666Y-52298333D01*
X109666666Y-52298333D02*
X109619047Y-52441190D01*
X109619047Y-52441190D02*
X109047619Y-53012619D01*
X109047619Y-53012619D02*
X109666666Y-53012619D01*
%TO.C,C3*%
X97333333Y-64547380D02*
X97285714Y-64595000D01*
X97285714Y-64595000D02*
X97142857Y-64642619D01*
X97142857Y-64642619D02*
X97047619Y-64642619D01*
X97047619Y-64642619D02*
X96904762Y-64595000D01*
X96904762Y-64595000D02*
X96809524Y-64499761D01*
X96809524Y-64499761D02*
X96761905Y-64404523D01*
X96761905Y-64404523D02*
X96714286Y-64214047D01*
X96714286Y-64214047D02*
X96714286Y-64071190D01*
X96714286Y-64071190D02*
X96761905Y-63880714D01*
X96761905Y-63880714D02*
X96809524Y-63785476D01*
X96809524Y-63785476D02*
X96904762Y-63690238D01*
X96904762Y-63690238D02*
X97047619Y-63642619D01*
X97047619Y-63642619D02*
X97142857Y-63642619D01*
X97142857Y-63642619D02*
X97285714Y-63690238D01*
X97285714Y-63690238D02*
X97333333Y-63737857D01*
X97666667Y-63642619D02*
X98285714Y-63642619D01*
X98285714Y-63642619D02*
X97952381Y-64023571D01*
X97952381Y-64023571D02*
X98095238Y-64023571D01*
X98095238Y-64023571D02*
X98190476Y-64071190D01*
X98190476Y-64071190D02*
X98238095Y-64118809D01*
X98238095Y-64118809D02*
X98285714Y-64214047D01*
X98285714Y-64214047D02*
X98285714Y-64452142D01*
X98285714Y-64452142D02*
X98238095Y-64547380D01*
X98238095Y-64547380D02*
X98190476Y-64595000D01*
X98190476Y-64595000D02*
X98095238Y-64642619D01*
X98095238Y-64642619D02*
X97809524Y-64642619D01*
X97809524Y-64642619D02*
X97714286Y-64595000D01*
X97714286Y-64595000D02*
X97666667Y-64547380D01*
D12*
%TO.C,J1*%
X101360000Y-50285000D02*
X100310000Y-50285000D01*
X101360000Y-47785000D02*
X101360000Y-50285000D01*
X100310000Y-50285000D02*
X100310000Y-51275000D01*
X100190000Y-45815000D02*
X96310000Y-45815000D01*
X95140000Y-50285000D02*
X96190000Y-50285000D01*
X95140000Y-47785000D02*
X95140000Y-50285000D01*
%TO.C,IC2*%
X110100000Y-60810000D02*
X113550000Y-60810000D01*
X110100000Y-60810000D02*
X108150000Y-60810000D01*
X110100000Y-55690000D02*
X112050000Y-55690000D01*
X110100000Y-55690000D02*
X108150000Y-55690000D01*
%TO.C,C2*%
X101761252Y-65235000D02*
X101238748Y-65235000D01*
X101761252Y-63765000D02*
X101238748Y-63765000D01*
D13*
%TO.C,IC1*%
X102900000Y-72000000D02*
X102900000Y-72000000D01*
X103000000Y-72000000D02*
X103000000Y-72000000D01*
D14*
X104200000Y-71700000D02*
X105800000Y-71700000D01*
X104200000Y-73300000D02*
X105800000Y-73300000D01*
D13*
X103000000Y-72000000D02*
G75*
G03*
X102900000Y-72000000I-50000J0D01*
G01*
X102900000Y-72000000D02*
G75*
G03*
X103000000Y-72000000I50000J0D01*
G01*
D12*
%TO.C,C5*%
X108735000Y-62738748D02*
X108735000Y-63261252D01*
X107265000Y-62738748D02*
X107265000Y-63261252D01*
%TO.C,C4*%
X113235000Y-62738748D02*
X113235000Y-63261252D01*
X111765000Y-62738748D02*
X111765000Y-63261252D01*
%TO.C,C6*%
X106738748Y-74765000D02*
X107261252Y-74765000D01*
X106738748Y-76235000D02*
X107261252Y-76235000D01*
%TO.C,C7*%
X101761252Y-70235000D02*
X101238748Y-70235000D01*
X101761252Y-68765000D02*
X101238748Y-68765000D01*
%TO.C,U1*%
X103060000Y-61250000D02*
X103060000Y-59450000D01*
X103060000Y-61250000D02*
X103060000Y-62050000D01*
X99940000Y-61250000D02*
X99940000Y-60450000D01*
X99940000Y-61250000D02*
X99940000Y-62050000D01*
%TO.C,C1*%
X105235000Y-60988748D02*
X105235000Y-61511252D01*
X103765000Y-60988748D02*
X103765000Y-61511252D01*
%TO.C,J2*%
X115600000Y-51750000D02*
X115600000Y-50500000D01*
X115310000Y-51460000D02*
X115310000Y-45490000D01*
X115310000Y-45490000D02*
X102690000Y-45490000D01*
X115300000Y-51450000D02*
X115300000Y-50700000D01*
X115300000Y-50700000D02*
X113500000Y-50700000D01*
X115300000Y-49200000D02*
X114550000Y-49200000D01*
X114550000Y-49200000D02*
X114550000Y-47860000D01*
X114350000Y-51750000D02*
X115600000Y-51750000D01*
X113500000Y-51450000D02*
X115300000Y-51450000D01*
X113500000Y-50700000D02*
X113500000Y-51450000D01*
X112000000Y-51450000D02*
X112000000Y-50700000D01*
X112000000Y-50700000D02*
X106000000Y-50700000D01*
X109000000Y-46250000D02*
X113490000Y-46250000D01*
X106000000Y-51450000D02*
X112000000Y-51450000D01*
X106000000Y-50700000D02*
X106000000Y-51450000D01*
X104500000Y-51450000D02*
X104500000Y-50700000D01*
X104500000Y-50700000D02*
X102700000Y-50700000D01*
X103450000Y-49200000D02*
X103450000Y-46250000D01*
X103450000Y-46250000D02*
X109000000Y-46250000D01*
X102700000Y-51450000D02*
X104500000Y-51450000D01*
X102700000Y-50700000D02*
X102700000Y-51450000D01*
X102700000Y-49200000D02*
X103450000Y-49200000D01*
X102690000Y-51460000D02*
X115310000Y-51460000D01*
X102690000Y-45490000D02*
X102690000Y-51460000D01*
%TO.C,C3*%
X97761252Y-63235000D02*
X97238748Y-63235000D01*
X97761252Y-61765000D02*
X97238748Y-61765000D01*
%TD*%
M02*
