%TF.GenerationSoftware,KiCad,Pcbnew,7.0.1-0*%
%TF.CreationDate,2023-04-01T23:00:14-04:00*%
%TF.ProjectId,Turbidometer,54757262-6964-46f6-9d65-7465722e6b69,rev?*%
%TF.SameCoordinates,Original*%
%TF.FileFunction,Copper,L1,Top*%
%TF.FilePolarity,Positive*%
%FSLAX46Y46*%
G04 Gerber Fmt 4.6, Leading zero omitted, Abs format (unit mm)*
G04 Created by KiCad (PCBNEW 7.0.1-0) date 2023-04-01 23:00:14*
%MOMM*%
%LPD*%
G01*
G04 APERTURE LIST*
G04 Aperture macros list*
%AMRoundRect*
0 Rectangle with rounded corners*
0 $1 Rounding radius*
0 $2 $3 $4 $5 $6 $7 $8 $9 X,Y pos of 4 corners*
0 Add a 4 corners polygon primitive as box body*
4,1,4,$2,$3,$4,$5,$6,$7,$8,$9,$2,$3,0*
0 Add four circle primitives for the rounded corners*
1,1,$1+$1,$2,$3*
1,1,$1+$1,$4,$5*
1,1,$1+$1,$6,$7*
1,1,$1+$1,$8,$9*
0 Add four rect primitives between the rounded corners*
20,1,$1+$1,$2,$3,$4,$5,0*
20,1,$1+$1,$4,$5,$6,$7,0*
20,1,$1+$1,$6,$7,$8,$9,0*
20,1,$1+$1,$8,$9,$2,$3,0*%
G04 Aperture macros list end*
%TA.AperFunction,SMDPad,CuDef*%
%ADD10RoundRect,0.150000X0.150000X0.625000X-0.150000X0.625000X-0.150000X-0.625000X0.150000X-0.625000X0*%
%TD*%
%TA.AperFunction,SMDPad,CuDef*%
%ADD11RoundRect,0.250000X0.350000X0.650000X-0.350000X0.650000X-0.350000X-0.650000X0.350000X-0.650000X0*%
%TD*%
%TA.AperFunction,ComponentPad*%
%ADD12C,5.500000*%
%TD*%
%TA.AperFunction,SMDPad,CuDef*%
%ADD13RoundRect,0.150000X0.825000X0.150000X-0.825000X0.150000X-0.825000X-0.150000X0.825000X-0.150000X0*%
%TD*%
%TA.AperFunction,SMDPad,CuDef*%
%ADD14RoundRect,0.250000X0.337500X0.475000X-0.337500X0.475000X-0.337500X-0.475000X0.337500X-0.475000X0*%
%TD*%
%TA.AperFunction,SMDPad,CuDef*%
%ADD15R,0.550000X0.250000*%
%TD*%
%TA.AperFunction,SMDPad,CuDef*%
%ADD16RoundRect,0.250000X-0.475000X0.337500X-0.475000X-0.337500X0.475000X-0.337500X0.475000X0.337500X0*%
%TD*%
%TA.AperFunction,SMDPad,CuDef*%
%ADD17RoundRect,0.250000X-0.337500X-0.475000X0.337500X-0.475000X0.337500X0.475000X-0.337500X0.475000X0*%
%TD*%
%TA.AperFunction,SMDPad,CuDef*%
%ADD18RoundRect,0.150000X-0.150000X0.512500X-0.150000X-0.512500X0.150000X-0.512500X0.150000X0.512500X0*%
%TD*%
%TA.AperFunction,ComponentPad*%
%ADD19RoundRect,0.250000X0.600000X0.725000X-0.600000X0.725000X-0.600000X-0.725000X0.600000X-0.725000X0*%
%TD*%
%TA.AperFunction,ComponentPad*%
%ADD20O,1.700000X1.950000*%
%TD*%
%TA.AperFunction,ViaPad*%
%ADD21C,0.800000*%
%TD*%
%TA.AperFunction,Conductor*%
%ADD22C,0.500000*%
%TD*%
%TA.AperFunction,Conductor*%
%ADD23C,0.250000*%
%TD*%
%TA.AperFunction,Conductor*%
%ADD24C,1.000000*%
%TD*%
G04 APERTURE END LIST*
D10*
%TO.P,J1,1,Pin_1*%
%TO.N,GND*%
X99750000Y-50500000D03*
%TO.P,J1,2,Pin_2*%
%TO.N,+3V3*%
X98750000Y-50500000D03*
%TO.P,J1,3,Pin_3*%
%TO.N,SDA-VCC*%
X97750000Y-50500000D03*
%TO.P,J1,4,Pin_4*%
%TO.N,SCL-VCC*%
X96750000Y-50500000D03*
D11*
%TO.P,J1,MP*%
%TO.N,N/C*%
X101050000Y-46625000D03*
X95450000Y-46625000D03*
%TD*%
D12*
%TO.P,H2,1*%
%TO.N,N/C*%
X120000000Y-47500000D03*
%TD*%
D13*
%TO.P,IC2,1,VL*%
%TO.N,+3V0*%
X112575000Y-60155000D03*
%TO.P,IC2,2,I/O_VL1*%
%TO.N,SDA*%
X112575000Y-58885000D03*
%TO.P,IC2,3,I/O_VL2*%
%TO.N,SCL*%
X112575000Y-57615000D03*
%TO.P,IC2,4,GND*%
%TO.N,GND*%
X112575000Y-56345000D03*
%TO.P,IC2,5,EN*%
%TO.N,+3V0*%
X107625000Y-56345000D03*
%TO.P,IC2,6,I/O_VCC2*%
%TO.N,SCL-VCC*%
X107625000Y-57615000D03*
%TO.P,IC2,7,I/O_VCC1*%
%TO.N,SDA-VCC*%
X107625000Y-58885000D03*
%TO.P,IC2,8,VCC*%
%TO.N,+3V3*%
X107625000Y-60155000D03*
%TD*%
D14*
%TO.P,C2,1*%
%TO.N,+3V0*%
X102537500Y-64500000D03*
%TO.P,C2,2*%
%TO.N,GND*%
X100462500Y-64500000D03*
%TD*%
D15*
%TO.P,IC1,1,VCC*%
%TO.N,+3V0*%
X103625000Y-72000000D03*
%TO.P,IC1,2,INT*%
%TO.N,GND*%
X103625000Y-72500000D03*
%TO.P,IC1,3,GND_*%
X103625000Y-73000000D03*
%TO.P,IC1,4,SDA*%
%TO.N,SDA*%
X106375000Y-73000000D03*
%TO.P,IC1,5,DVI_*%
%TO.N,+3V0*%
X106375000Y-72500000D03*
%TO.P,IC1,6,SCL*%
%TO.N,SCL*%
X106375000Y-72000000D03*
%TD*%
D12*
%TO.P,H1,1*%
%TO.N,N/C*%
X90000000Y-47500000D03*
%TD*%
D16*
%TO.P,C5,1*%
%TO.N,+3V3*%
X108000000Y-61962500D03*
%TO.P,C5,2*%
%TO.N,GND*%
X108000000Y-64037500D03*
%TD*%
%TO.P,C4,1*%
%TO.N,+3V0*%
X112500000Y-61962500D03*
%TO.P,C4,2*%
%TO.N,GND*%
X112500000Y-64037500D03*
%TD*%
D17*
%TO.P,C6,1*%
%TO.N,+3V0*%
X105962500Y-75500000D03*
%TO.P,C6,2*%
%TO.N,GND*%
X108037500Y-75500000D03*
%TD*%
D12*
%TO.P,H4,1*%
%TO.N,N/C*%
X120000000Y-77500000D03*
%TD*%
D14*
%TO.P,C7,1*%
%TO.N,+3V0*%
X102537500Y-69500000D03*
%TO.P,C7,2*%
%TO.N,GND*%
X100462500Y-69500000D03*
%TD*%
D18*
%TO.P,U1,1,VIN*%
%TO.N,+3V3*%
X102450000Y-60112500D03*
%TO.P,U1,2,GND*%
%TO.N,GND*%
X101500000Y-60112500D03*
%TO.P,U1,3,ON/~{OFF}*%
%TO.N,+3V3*%
X100550000Y-60112500D03*
%TO.P,U1,4,BP*%
%TO.N,Net-(U1-BP)*%
X100550000Y-62387500D03*
%TO.P,U1,5,VOUT*%
%TO.N,+3V0*%
X102450000Y-62387500D03*
%TD*%
D16*
%TO.P,C1,1*%
%TO.N,+3V3*%
X104500000Y-60212500D03*
%TO.P,C1,2*%
%TO.N,GND*%
X104500000Y-62287500D03*
%TD*%
D12*
%TO.P,H3,1*%
%TO.N,N/C*%
X90000000Y-77500000D03*
%TD*%
D19*
%TO.P,J2,1,Pin_1*%
%TO.N,GND*%
X112750000Y-49000000D03*
D20*
%TO.P,J2,2,Pin_2*%
%TO.N,+3V3*%
X110250000Y-49000000D03*
%TO.P,J2,3,Pin_3*%
%TO.N,SDA-VCC*%
X107750000Y-49000000D03*
%TO.P,J2,4,Pin_4*%
%TO.N,SCL-VCC*%
X105250000Y-49000000D03*
%TD*%
D14*
%TO.P,C3,1*%
%TO.N,Net-(U1-BP)*%
X98537500Y-62500000D03*
%TO.P,C3,2*%
%TO.N,GND*%
X96462500Y-62500000D03*
%TD*%
D21*
%TO.N,+3V3*%
X98750000Y-52000000D03*
%TO.N,GND*%
X103600000Y-73800000D03*
X89000000Y-62500000D03*
X105000000Y-78500000D03*
X89000000Y-52500000D03*
X109500000Y-75500000D03*
X105787500Y-62287500D03*
X99000000Y-64500000D03*
X95000000Y-78500000D03*
X121000000Y-55000000D03*
X99000000Y-69500000D03*
X102500000Y-78500000D03*
X112500000Y-65250000D03*
X100750000Y-50500000D03*
X115000000Y-78500000D03*
X105000000Y-67500000D03*
X121000000Y-70000000D03*
X107500000Y-78500000D03*
X105000000Y-70000000D03*
X97500000Y-78500000D03*
X108000000Y-65599500D03*
X107500000Y-70000000D03*
X96500000Y-61000000D03*
X102000000Y-50500000D03*
X101500000Y-58750000D03*
X89000000Y-57500000D03*
X112500000Y-78500000D03*
X107500000Y-67500000D03*
X102500000Y-72500000D03*
X121000000Y-67500000D03*
X121000000Y-57500000D03*
X114250000Y-56250000D03*
X110000000Y-78500000D03*
X121000000Y-62500000D03*
X100000000Y-78500000D03*
X121000000Y-60000000D03*
X121000000Y-72500000D03*
X89000000Y-55000000D03*
X89000000Y-60000000D03*
X89000000Y-67500000D03*
X89000000Y-72500000D03*
X89000000Y-70000000D03*
X89000000Y-65000000D03*
X121000000Y-52500000D03*
X104997882Y-65599500D03*
X121000000Y-65000000D03*
%TO.N,+3V0*%
X103750000Y-64500000D03*
X107750000Y-55000000D03*
X111000000Y-62000000D03*
X114250000Y-60000000D03*
%TD*%
D22*
%TO.N,+3V3*%
X107625000Y-61587500D02*
X108000000Y-61962500D01*
X107028972Y-60112500D02*
X102450000Y-60112500D01*
D23*
X100550000Y-60750000D02*
X100550000Y-60112500D01*
D22*
X98750000Y-52000000D02*
X98750000Y-50500000D01*
D23*
X101000000Y-61200000D02*
X100550000Y-60750000D01*
X102000000Y-61200000D02*
X101000000Y-61200000D01*
X102450000Y-60750000D02*
X102000000Y-61200000D01*
D22*
X110250000Y-59712500D02*
X108000000Y-61962500D01*
X107625000Y-60155000D02*
X107625000Y-61587500D01*
X110250000Y-49000000D02*
X110250000Y-59712500D01*
D23*
X102450000Y-60112500D02*
X102450000Y-60750000D01*
%TO.N,GND*%
X103625000Y-73000000D02*
X103625000Y-73775000D01*
D24*
X105787500Y-62287500D02*
X104500000Y-62287500D01*
X100462500Y-64500000D02*
X99000000Y-64500000D01*
X96462500Y-61037500D02*
X96500000Y-61000000D01*
X108037500Y-75500000D02*
X109500000Y-75500000D01*
D23*
X103625000Y-72500000D02*
X102500000Y-72500000D01*
D22*
X101500000Y-60112500D02*
X101500000Y-58750000D01*
D24*
X112500000Y-65250000D02*
X112500000Y-64037500D01*
D22*
X114155000Y-56345000D02*
X114250000Y-56250000D01*
X99750000Y-50500000D02*
X100750000Y-50500000D01*
D24*
X108000000Y-65599500D02*
X108000000Y-64037500D01*
D22*
X112575000Y-56345000D02*
X114155000Y-56345000D01*
D24*
X100462500Y-69500000D02*
X99000000Y-69500000D01*
D23*
X103625000Y-73775000D02*
X103600000Y-73800000D01*
D24*
X96462500Y-62500000D02*
X96462500Y-61037500D01*
%TO.N,+3V0*%
X102537500Y-64500000D02*
X103750000Y-64500000D01*
X111000000Y-62000000D02*
X112462500Y-62000000D01*
D22*
X112575000Y-60155000D02*
X114095000Y-60155000D01*
D24*
X102372182Y-75500000D02*
X105962500Y-75500000D01*
D23*
X106000000Y-72500000D02*
X105750000Y-72750000D01*
D24*
X101000000Y-74127818D02*
X102372182Y-75500000D01*
D23*
X103625000Y-70587500D02*
X102537500Y-69500000D01*
D24*
X102537500Y-69962500D02*
X101000000Y-71500000D01*
X101000000Y-71500000D02*
X101000000Y-74127818D01*
D22*
X107750000Y-55000000D02*
X107750000Y-56220000D01*
D23*
X105750000Y-72750000D02*
X105750000Y-75287500D01*
D22*
X107750000Y-56220000D02*
X107625000Y-56345000D01*
D24*
X102537500Y-69500000D02*
X102537500Y-69962500D01*
D22*
X114095000Y-60155000D02*
X114250000Y-60000000D01*
D23*
X106375000Y-72500000D02*
X106000000Y-72500000D01*
D24*
X102537500Y-64500000D02*
X102537500Y-69500000D01*
D22*
X112575000Y-60155000D02*
X112575000Y-61887500D01*
X102450000Y-62387500D02*
X102450000Y-64412500D01*
D23*
X103625000Y-72000000D02*
X103625000Y-70587500D01*
D22*
%TO.N,Net-(U1-BP)*%
X100550000Y-62387500D02*
X98650000Y-62387500D01*
D23*
%TO.N,SDA*%
X109950000Y-70436396D02*
X109950000Y-61686396D01*
X107386396Y-73000000D02*
X109950000Y-70436396D01*
X109950000Y-61686396D02*
X111275000Y-60361396D01*
X111275000Y-60361396D02*
X111275000Y-59512500D01*
X106375000Y-73000000D02*
X107386396Y-73000000D01*
X111275000Y-59512500D02*
X111902500Y-58885000D01*
%TO.N,SCL*%
X110825000Y-60175000D02*
X110825000Y-58675000D01*
X109500000Y-70250000D02*
X109500000Y-61500000D01*
X106375000Y-72000000D02*
X107750000Y-72000000D01*
X110825000Y-58675000D02*
X111885000Y-57615000D01*
X107750000Y-72000000D02*
X109500000Y-70250000D01*
X109500000Y-61500000D02*
X110825000Y-60175000D01*
%TO.N,SCL-VCC*%
X101000000Y-53000000D02*
X105000000Y-49000000D01*
X97750000Y-53000000D02*
X101000000Y-53000000D01*
X109000000Y-57000000D02*
X108385000Y-57615000D01*
X96750000Y-50500000D02*
X96750000Y-52000000D01*
X105250000Y-49000000D02*
X109000000Y-52750000D01*
X109000000Y-52750000D02*
X109000000Y-57000000D01*
X96750000Y-52000000D02*
X97750000Y-53000000D01*
%TO.N,SDA-VCC*%
X104500000Y-47500000D02*
X106250000Y-47500000D01*
X107750000Y-49000000D02*
X109500000Y-50750000D01*
X97750000Y-50000000D02*
X98500000Y-49250000D01*
X98500000Y-49250000D02*
X102750000Y-49250000D01*
X102750000Y-49250000D02*
X104500000Y-47500000D01*
X106250000Y-47500000D02*
X107750000Y-49000000D01*
X109500000Y-50750000D02*
X109500000Y-57750000D01*
X109500000Y-57750000D02*
X108365000Y-58885000D01*
%TD*%
%TA.AperFunction,Conductor*%
%TO.N,GND*%
G36*
X106494833Y-60880268D02*
G01*
X106539602Y-60906744D01*
X106697427Y-60952597D01*
X106697431Y-60952598D01*
X106734306Y-60955500D01*
X106750500Y-60955500D01*
X106812500Y-60972113D01*
X106857887Y-61017500D01*
X106874500Y-61079500D01*
X106874500Y-61214868D01*
X106856039Y-61279964D01*
X106840186Y-61305665D01*
X106785000Y-61472202D01*
X106774500Y-61574990D01*
X106774500Y-62350008D01*
X106785000Y-62452796D01*
X106840186Y-62619334D01*
X106932288Y-62768657D01*
X107056340Y-62892709D01*
X107056342Y-62892710D01*
X107056344Y-62892712D01*
X107059652Y-62894752D01*
X107102834Y-62939857D01*
X107118559Y-63000289D01*
X107102838Y-63060721D01*
X107059659Y-63105830D01*
X107056654Y-63107683D01*
X106932683Y-63231654D01*
X106840642Y-63380877D01*
X106785493Y-63547303D01*
X106775000Y-63650021D01*
X106775000Y-63787500D01*
X108126000Y-63787500D01*
X108188000Y-63804113D01*
X108233387Y-63849500D01*
X108250000Y-63911500D01*
X108250000Y-65124999D01*
X108524979Y-65124999D01*
X108627695Y-65114506D01*
X108711496Y-65086737D01*
X108769363Y-65081886D01*
X108823093Y-65103913D01*
X108860903Y-65147987D01*
X108874500Y-65204443D01*
X108874500Y-69939548D01*
X108865061Y-69987001D01*
X108838181Y-70027229D01*
X107527228Y-71338181D01*
X107487000Y-71365061D01*
X107439547Y-71374500D01*
X106052130Y-71374500D01*
X105992515Y-71380909D01*
X105857669Y-71431204D01*
X105742454Y-71517454D01*
X105656204Y-71632668D01*
X105605909Y-71767516D01*
X105599500Y-71827131D01*
X105599500Y-71958185D01*
X105592169Y-72000190D01*
X105571042Y-72037228D01*
X105540572Y-72074058D01*
X105532711Y-72082696D01*
X105366208Y-72249199D01*
X105350110Y-72262096D01*
X105302096Y-72313225D01*
X105299391Y-72316017D01*
X105279874Y-72335534D01*
X105277415Y-72338705D01*
X105269842Y-72347572D01*
X105239935Y-72379420D01*
X105230285Y-72396974D01*
X105219609Y-72413228D01*
X105207326Y-72429063D01*
X105189975Y-72469158D01*
X105184838Y-72479644D01*
X105163802Y-72517907D01*
X105158821Y-72537309D01*
X105152520Y-72555711D01*
X105144561Y-72574102D01*
X105137728Y-72617242D01*
X105135360Y-72628674D01*
X105124500Y-72670978D01*
X105124500Y-72691016D01*
X105122973Y-72710415D01*
X105119840Y-72730194D01*
X105123950Y-72773675D01*
X105124500Y-72785344D01*
X105124500Y-74375500D01*
X105107887Y-74437500D01*
X105062500Y-74482887D01*
X105000500Y-74499500D01*
X102837965Y-74499500D01*
X102790512Y-74490061D01*
X102750284Y-74463181D01*
X102036819Y-73749717D01*
X102009939Y-73709489D01*
X102000500Y-73662036D01*
X102000500Y-73125000D01*
X102850000Y-73125000D01*
X102850000Y-73172824D01*
X102856402Y-73232375D01*
X102906647Y-73367089D01*
X102992811Y-73482188D01*
X103107910Y-73568352D01*
X103242624Y-73618597D01*
X103302176Y-73625000D01*
X103500000Y-73625000D01*
X103500000Y-73125000D01*
X103750000Y-73125000D01*
X103750000Y-73625000D01*
X103947824Y-73625000D01*
X104007375Y-73618597D01*
X104142089Y-73568352D01*
X104257188Y-73482188D01*
X104343352Y-73367089D01*
X104393597Y-73232375D01*
X104400000Y-73172824D01*
X104400000Y-73125000D01*
X103750000Y-73125000D01*
X103500000Y-73125000D01*
X102850000Y-73125000D01*
X102000500Y-73125000D01*
X102000500Y-71965783D01*
X102009939Y-71918330D01*
X102036819Y-71878102D01*
X102787819Y-71127102D01*
X102837182Y-71096852D01*
X102894898Y-71092310D01*
X102948385Y-71114465D01*
X102985985Y-71158488D01*
X102999500Y-71214783D01*
X102999500Y-71466770D01*
X102993154Y-71505929D01*
X102974767Y-71541081D01*
X102906204Y-71632668D01*
X102855909Y-71767516D01*
X102849500Y-71827130D01*
X102849500Y-72172868D01*
X102849501Y-72172873D01*
X102855909Y-72232483D01*
X102855909Y-72232485D01*
X102856620Y-72239091D01*
X102856620Y-72265600D01*
X102850000Y-72327177D01*
X102850000Y-72375000D01*
X102850038Y-72375038D01*
X102905383Y-72388118D01*
X102949146Y-72424695D01*
X102950643Y-72426695D01*
X102974879Y-72489953D01*
X102962254Y-72556508D01*
X102916537Y-72606496D01*
X102851372Y-72625000D01*
X102850000Y-72625000D01*
X102850000Y-72672824D01*
X102856872Y-72736746D01*
X102856872Y-72763254D01*
X102850000Y-72827176D01*
X102850000Y-72875000D01*
X104400000Y-72875000D01*
X104400000Y-72827169D01*
X104393128Y-72763256D01*
X104393128Y-72736744D01*
X104400000Y-72672831D01*
X104400000Y-72625000D01*
X104398628Y-72625000D01*
X104333463Y-72606496D01*
X104287746Y-72556508D01*
X104275121Y-72489953D01*
X104299357Y-72426695D01*
X104300854Y-72424695D01*
X104344617Y-72388118D01*
X104399961Y-72375038D01*
X104400000Y-72375000D01*
X104400000Y-72327169D01*
X104393380Y-72265598D01*
X104393380Y-72239084D01*
X104394089Y-72232487D01*
X104394091Y-72232483D01*
X104400500Y-72172873D01*
X104400499Y-71827128D01*
X104394091Y-71767517D01*
X104343796Y-71632669D01*
X104275232Y-71541080D01*
X104256846Y-71505929D01*
X104250500Y-71466770D01*
X104250500Y-70670240D01*
X104252763Y-70649736D01*
X104250561Y-70579644D01*
X104250500Y-70575750D01*
X104250500Y-70548157D01*
X104250500Y-70548150D01*
X104249995Y-70544153D01*
X104249080Y-70532523D01*
X104247709Y-70488873D01*
X104242120Y-70469640D01*
X104238174Y-70450582D01*
X104235664Y-70430708D01*
X104219588Y-70390106D01*
X104215804Y-70379052D01*
X104203619Y-70337113D01*
X104203618Y-70337112D01*
X104203618Y-70337110D01*
X104193417Y-70319861D01*
X104184860Y-70302395D01*
X104177486Y-70283768D01*
X104151813Y-70248432D01*
X104145402Y-70238672D01*
X104123169Y-70201078D01*
X104109006Y-70186915D01*
X104096369Y-70172120D01*
X104084595Y-70155914D01*
X104084594Y-70155913D01*
X104050935Y-70128068D01*
X104042305Y-70120214D01*
X103661818Y-69739727D01*
X103634938Y-69699499D01*
X103625499Y-69652046D01*
X103625499Y-68974991D01*
X103614999Y-68872203D01*
X103559813Y-68705664D01*
X103556461Y-68700229D01*
X103538000Y-68635133D01*
X103538000Y-65624500D01*
X103554613Y-65562500D01*
X103600000Y-65517113D01*
X103662000Y-65500500D01*
X103800740Y-65500500D01*
X103800742Y-65500500D01*
X103952438Y-65485074D01*
X104146588Y-65424159D01*
X104324502Y-65325409D01*
X104478895Y-65192866D01*
X104603448Y-65031958D01*
X104693060Y-64849271D01*
X104744063Y-64652285D01*
X104754369Y-64449064D01*
X104750679Y-64424979D01*
X104729618Y-64287500D01*
X106775001Y-64287500D01*
X106775001Y-64424979D01*
X106785493Y-64527695D01*
X106840642Y-64694122D01*
X106932683Y-64843345D01*
X107056654Y-64967316D01*
X107205877Y-65059357D01*
X107372303Y-65114506D01*
X107475021Y-65125000D01*
X107750000Y-65125000D01*
X107750000Y-64287500D01*
X106775001Y-64287500D01*
X104729618Y-64287500D01*
X104723556Y-64247928D01*
X104652886Y-64057113D01*
X104545254Y-63884431D01*
X104512049Y-63849500D01*
X104405059Y-63736947D01*
X104238049Y-63620705D01*
X104219977Y-63612949D01*
X104167828Y-63570865D01*
X104145192Y-63507789D01*
X104158682Y-63442146D01*
X104204358Y-63393109D01*
X104242633Y-63382366D01*
X104250000Y-63375000D01*
X104250000Y-62537500D01*
X104750000Y-62537500D01*
X104750000Y-63374999D01*
X105024979Y-63374999D01*
X105127695Y-63364506D01*
X105294122Y-63309357D01*
X105443345Y-63217316D01*
X105567316Y-63093345D01*
X105659357Y-62944122D01*
X105714506Y-62777696D01*
X105725000Y-62674979D01*
X105725000Y-62537500D01*
X104750000Y-62537500D01*
X104250000Y-62537500D01*
X104250000Y-62161500D01*
X104266613Y-62099500D01*
X104312000Y-62054113D01*
X104374000Y-62037500D01*
X105724999Y-62037500D01*
X105724999Y-61900021D01*
X105714506Y-61797304D01*
X105659357Y-61630877D01*
X105567316Y-61481654D01*
X105443344Y-61357682D01*
X105440343Y-61355831D01*
X105397161Y-61310723D01*
X105381440Y-61250289D01*
X105397166Y-61189856D01*
X105440347Y-61144752D01*
X105443656Y-61142712D01*
X105567712Y-61018656D01*
X105608457Y-60952597D01*
X105627389Y-60921904D01*
X105672496Y-60878723D01*
X105732928Y-60863000D01*
X106431712Y-60863000D01*
X106494833Y-60880268D01*
G37*
%TD.AperFunction*%
%TA.AperFunction,Conductor*%
G36*
X103053140Y-49874792D02*
G01*
X103089894Y-49930742D01*
X103092208Y-49997645D01*
X103059406Y-50056001D01*
X100777228Y-52338181D01*
X100737000Y-52365061D01*
X100689547Y-52374500D01*
X99745831Y-52374500D01*
X99689536Y-52360985D01*
X99645513Y-52323386D01*
X99623358Y-52269899D01*
X99627900Y-52212183D01*
X99635673Y-52188259D01*
X99635672Y-52188259D01*
X99635674Y-52188256D01*
X99655460Y-52000000D01*
X99635674Y-51811744D01*
X99577179Y-51631716D01*
X99577179Y-51631715D01*
X99517113Y-51527678D01*
X99500500Y-51465678D01*
X99500500Y-51407327D01*
X99505424Y-51372732D01*
X99547597Y-51227572D01*
X99547596Y-51227572D01*
X99547598Y-51227569D01*
X99550500Y-51190694D01*
X99550500Y-50750000D01*
X100000000Y-50750000D01*
X100000000Y-51772295D01*
X100002488Y-51772099D01*
X100160200Y-51726280D01*
X100301557Y-51642682D01*
X100417682Y-51526557D01*
X100501282Y-51385197D01*
X100547099Y-51227493D01*
X100550000Y-51190639D01*
X100550000Y-50750000D01*
X100000000Y-50750000D01*
X99550500Y-50750000D01*
X99550500Y-50374000D01*
X99567113Y-50312000D01*
X99612500Y-50266613D01*
X99674500Y-50250000D01*
X100550000Y-50250000D01*
X100550000Y-49999500D01*
X100566613Y-49937500D01*
X100612000Y-49892113D01*
X100674000Y-49875500D01*
X102667256Y-49875500D01*
X102687762Y-49877764D01*
X102690665Y-49877672D01*
X102690667Y-49877673D01*
X102757872Y-49875561D01*
X102761768Y-49875500D01*
X102789349Y-49875500D01*
X102789350Y-49875500D01*
X102793319Y-49874998D01*
X102804965Y-49874080D01*
X102848627Y-49872709D01*
X102867859Y-49867120D01*
X102886918Y-49863174D01*
X102893196Y-49862381D01*
X102906792Y-49860664D01*
X102926075Y-49853028D01*
X102992658Y-49846100D01*
X103053140Y-49874792D01*
G37*
%TD.AperFunction*%
%TA.AperFunction,Conductor*%
G36*
X94954286Y-45019226D02*
G01*
X95000040Y-45070942D01*
X95011041Y-45139111D01*
X94983876Y-45202595D01*
X94926969Y-45241706D01*
X94780665Y-45290186D01*
X94631342Y-45382288D01*
X94507288Y-45506342D01*
X94415186Y-45655665D01*
X94360000Y-45822202D01*
X94349500Y-45924990D01*
X94349500Y-47325008D01*
X94360000Y-47427796D01*
X94415186Y-47594334D01*
X94507288Y-47743657D01*
X94631342Y-47867711D01*
X94631344Y-47867712D01*
X94780666Y-47959814D01*
X94853860Y-47984068D01*
X94947202Y-48014999D01*
X94957702Y-48016071D01*
X95049991Y-48025500D01*
X95850008Y-48025499D01*
X95952797Y-48014999D01*
X96119334Y-47959814D01*
X96268656Y-47867712D01*
X96392712Y-47743656D01*
X96484814Y-47594334D01*
X96539999Y-47427797D01*
X96550500Y-47325009D01*
X96550499Y-45924992D01*
X96539999Y-45822203D01*
X96484814Y-45655666D01*
X96392712Y-45506344D01*
X96392711Y-45506342D01*
X96268657Y-45382288D01*
X96119334Y-45290186D01*
X95973032Y-45241706D01*
X95916125Y-45202595D01*
X95888960Y-45139111D01*
X95899961Y-45070942D01*
X95945715Y-45019226D01*
X96012036Y-45000000D01*
X100487965Y-45000000D01*
X100554286Y-45019226D01*
X100600040Y-45070942D01*
X100611041Y-45139111D01*
X100583876Y-45202595D01*
X100526969Y-45241706D01*
X100380665Y-45290186D01*
X100231342Y-45382288D01*
X100107288Y-45506342D01*
X100015186Y-45655665D01*
X99960000Y-45822202D01*
X99949500Y-45924990D01*
X99949500Y-47325008D01*
X99960000Y-47427796D01*
X100015186Y-47594334D01*
X100107288Y-47743657D01*
X100231342Y-47867711D01*
X100231344Y-47867712D01*
X100380666Y-47959814D01*
X100453860Y-47984068D01*
X100547202Y-48014999D01*
X100557702Y-48016071D01*
X100649991Y-48025500D01*
X101450008Y-48025499D01*
X101552797Y-48014999D01*
X101719334Y-47959814D01*
X101868656Y-47867712D01*
X101992712Y-47743656D01*
X102084814Y-47594334D01*
X102139999Y-47427797D01*
X102150500Y-47325009D01*
X102150499Y-45924992D01*
X102139999Y-45822203D01*
X102084814Y-45655666D01*
X101992712Y-45506344D01*
X101992711Y-45506342D01*
X101868657Y-45382288D01*
X101719334Y-45290186D01*
X101573032Y-45241706D01*
X101516125Y-45202595D01*
X101488960Y-45139111D01*
X101499961Y-45070942D01*
X101545715Y-45019226D01*
X101612036Y-45000000D01*
X117601373Y-45000000D01*
X117658265Y-45013822D01*
X117702475Y-45052206D01*
X117724145Y-45106595D01*
X117718446Y-45164864D01*
X117686648Y-45214023D01*
X117636686Y-45261349D01*
X117408496Y-45529995D01*
X117210695Y-45821728D01*
X117045592Y-46133144D01*
X116915127Y-46460586D01*
X116820833Y-46800204D01*
X116763808Y-47148049D01*
X116744725Y-47499999D01*
X116763808Y-47851950D01*
X116820833Y-48199795D01*
X116915127Y-48539413D01*
X117045592Y-48866855D01*
X117210695Y-49178271D01*
X117334188Y-49360408D01*
X117408499Y-49470008D01*
X117579595Y-49671437D01*
X117636686Y-49738650D01*
X117892578Y-49981045D01*
X118132588Y-50163495D01*
X118173182Y-50194354D01*
X118475202Y-50376074D01*
X118795099Y-50524074D01*
X119044252Y-50608023D01*
X119129121Y-50636619D01*
X119204893Y-50653297D01*
X119473355Y-50712391D01*
X119785652Y-50746355D01*
X119823762Y-50750500D01*
X119823763Y-50750500D01*
X120176237Y-50750500D01*
X120176238Y-50750500D01*
X120210608Y-50746761D01*
X120526645Y-50712391D01*
X120870878Y-50636619D01*
X121204901Y-50524074D01*
X121524798Y-50376074D01*
X121826818Y-50194354D01*
X122107420Y-49981046D01*
X122290725Y-49807409D01*
X122340246Y-49778701D01*
X122397385Y-49775292D01*
X122449968Y-49797911D01*
X122486788Y-49841738D01*
X122500000Y-49897434D01*
X122500000Y-75102566D01*
X122486788Y-75158262D01*
X122449968Y-75202089D01*
X122397385Y-75224708D01*
X122340246Y-75221299D01*
X122290725Y-75192590D01*
X122195688Y-75102566D01*
X122107420Y-75018954D01*
X122049589Y-74974992D01*
X121826817Y-74805645D01*
X121524795Y-74623924D01*
X121204903Y-74475927D01*
X121204901Y-74475926D01*
X121122758Y-74448249D01*
X120870878Y-74363380D01*
X120526645Y-74287609D01*
X120176238Y-74249500D01*
X120176237Y-74249500D01*
X119823763Y-74249500D01*
X119823762Y-74249500D01*
X119473354Y-74287609D01*
X119129121Y-74363380D01*
X118795096Y-74475927D01*
X118475204Y-74623924D01*
X118173182Y-74805645D01*
X117892578Y-75018954D01*
X117636686Y-75261349D01*
X117408496Y-75529995D01*
X117210695Y-75821728D01*
X117045592Y-76133144D01*
X116915127Y-76460586D01*
X116820833Y-76800204D01*
X116763808Y-77148049D01*
X116744725Y-77500000D01*
X116763808Y-77851950D01*
X116820833Y-78199795D01*
X116915127Y-78539413D01*
X117045592Y-78866855D01*
X117210695Y-79178271D01*
X117408496Y-79470004D01*
X117636686Y-79738650D01*
X117686648Y-79785977D01*
X117718446Y-79835136D01*
X117724145Y-79893405D01*
X117702475Y-79947794D01*
X117658265Y-79986178D01*
X117601373Y-80000000D01*
X92398627Y-80000000D01*
X92341735Y-79986178D01*
X92297525Y-79947794D01*
X92275855Y-79893405D01*
X92281554Y-79835136D01*
X92313352Y-79785977D01*
X92328591Y-79771541D01*
X92363314Y-79738650D01*
X92591501Y-79470008D01*
X92789305Y-79178269D01*
X92954407Y-78866855D01*
X93084872Y-78539413D01*
X93179166Y-78199795D01*
X93179165Y-78199795D01*
X93179168Y-78199788D01*
X93236191Y-77851957D01*
X93255274Y-77500000D01*
X93236191Y-77148043D01*
X93179168Y-76800212D01*
X93179166Y-76800204D01*
X93084872Y-76460586D01*
X92954407Y-76133144D01*
X92789304Y-75821728D01*
X92591503Y-75529995D01*
X92591501Y-75529992D01*
X92363314Y-75261350D01*
X92290725Y-75192590D01*
X92107421Y-75018954D01*
X91826817Y-74805645D01*
X91524795Y-74623924D01*
X91204903Y-74475927D01*
X91204901Y-74475926D01*
X91122758Y-74448249D01*
X90870878Y-74363380D01*
X90526645Y-74287609D01*
X90176238Y-74249500D01*
X90176237Y-74249500D01*
X89823763Y-74249500D01*
X89823762Y-74249500D01*
X89473354Y-74287609D01*
X89129121Y-74363380D01*
X88795096Y-74475927D01*
X88475204Y-74623924D01*
X88173182Y-74805645D01*
X87892584Y-75018950D01*
X87709275Y-75192590D01*
X87659754Y-75221299D01*
X87602615Y-75224708D01*
X87550032Y-75202089D01*
X87513212Y-75158262D01*
X87500000Y-75102566D01*
X87500000Y-69250000D01*
X99375000Y-69250000D01*
X100212500Y-69250000D01*
X100212500Y-68275001D01*
X100075021Y-68275001D01*
X99972304Y-68285493D01*
X99805877Y-68340642D01*
X99656654Y-68432683D01*
X99532683Y-68556654D01*
X99440642Y-68705877D01*
X99385493Y-68872303D01*
X99375000Y-68975021D01*
X99375000Y-69250000D01*
X87500000Y-69250000D01*
X87500000Y-64750000D01*
X99375001Y-64750000D01*
X99375001Y-65024979D01*
X99385493Y-65127695D01*
X99440642Y-65294122D01*
X99532683Y-65443345D01*
X99656654Y-65567316D01*
X99805877Y-65659357D01*
X99972303Y-65714506D01*
X100075021Y-65725000D01*
X100212500Y-65725000D01*
X100212500Y-64750000D01*
X99375001Y-64750000D01*
X87500000Y-64750000D01*
X87500000Y-62750000D01*
X95375001Y-62750000D01*
X95375001Y-63024979D01*
X95385493Y-63127695D01*
X95440642Y-63294122D01*
X95532683Y-63443345D01*
X95656654Y-63567316D01*
X95805877Y-63659357D01*
X95972303Y-63714506D01*
X96075021Y-63725000D01*
X96212500Y-63725000D01*
X96212500Y-62750000D01*
X95375001Y-62750000D01*
X87500000Y-62750000D01*
X87500000Y-62250000D01*
X95375000Y-62250000D01*
X96212500Y-62250000D01*
X96212500Y-61275001D01*
X96075021Y-61275001D01*
X95972304Y-61285493D01*
X95805877Y-61340642D01*
X95656654Y-61432683D01*
X95532683Y-61556654D01*
X95440642Y-61705877D01*
X95385493Y-61872303D01*
X95375000Y-61975021D01*
X95375000Y-62250000D01*
X87500000Y-62250000D01*
X87500000Y-51190692D01*
X95949500Y-51190692D01*
X95952402Y-51227572D01*
X95998255Y-51385397D01*
X96081919Y-51526865D01*
X96088181Y-51533127D01*
X96115061Y-51573355D01*
X96124500Y-51620808D01*
X96124500Y-51917256D01*
X96122235Y-51937762D01*
X96124439Y-52007873D01*
X96124500Y-52011768D01*
X96124500Y-52039349D01*
X96125003Y-52043334D01*
X96125918Y-52054967D01*
X96127290Y-52098626D01*
X96132879Y-52117860D01*
X96136825Y-52136916D01*
X96139335Y-52156792D01*
X96155414Y-52197404D01*
X96159197Y-52208451D01*
X96171382Y-52250391D01*
X96181580Y-52267635D01*
X96190136Y-52285100D01*
X96197514Y-52303732D01*
X96197515Y-52303733D01*
X96223180Y-52339059D01*
X96229593Y-52348822D01*
X96251826Y-52386416D01*
X96251829Y-52386419D01*
X96251830Y-52386420D01*
X96265995Y-52400585D01*
X96278627Y-52415375D01*
X96290406Y-52431587D01*
X96324058Y-52459426D01*
X96332699Y-52467289D01*
X97249197Y-53383787D01*
X97262098Y-53399889D01*
X97264212Y-53401874D01*
X97264214Y-53401877D01*
X97311561Y-53446339D01*
X97313240Y-53447916D01*
X97316036Y-53450626D01*
X97335530Y-53470120D01*
X97338704Y-53472582D01*
X97347568Y-53480153D01*
X97379418Y-53510062D01*
X97389914Y-53515832D01*
X97396974Y-53519714D01*
X97413231Y-53530392D01*
X97429064Y-53542674D01*
X97445185Y-53549649D01*
X97469156Y-53560023D01*
X97479643Y-53565160D01*
X97517908Y-53586197D01*
X97537316Y-53591180D01*
X97555710Y-53597478D01*
X97574105Y-53605438D01*
X97617254Y-53612271D01*
X97628680Y-53614638D01*
X97644222Y-53618629D01*
X97670980Y-53625500D01*
X97670981Y-53625500D01*
X97691016Y-53625500D01*
X97710413Y-53627026D01*
X97730196Y-53630160D01*
X97773674Y-53626050D01*
X97785344Y-53625500D01*
X100917256Y-53625500D01*
X100937762Y-53627764D01*
X100940665Y-53627672D01*
X100940667Y-53627673D01*
X101007872Y-53625561D01*
X101011768Y-53625500D01*
X101039349Y-53625500D01*
X101039350Y-53625500D01*
X101043319Y-53624998D01*
X101054965Y-53624080D01*
X101098627Y-53622709D01*
X101117859Y-53617120D01*
X101136918Y-53613174D01*
X101144091Y-53612268D01*
X101156792Y-53610664D01*
X101197407Y-53594582D01*
X101208444Y-53590803D01*
X101250390Y-53578618D01*
X101267629Y-53568422D01*
X101285102Y-53559862D01*
X101303732Y-53552486D01*
X101339064Y-53526814D01*
X101348830Y-53520400D01*
X101386418Y-53498171D01*
X101386417Y-53498171D01*
X101386420Y-53498170D01*
X101400585Y-53484004D01*
X101415373Y-53471373D01*
X101431587Y-53459594D01*
X101459438Y-53425926D01*
X101467279Y-53417309D01*
X104519904Y-50364684D01*
X104561802Y-50337128D01*
X104611190Y-50328419D01*
X104659987Y-50339984D01*
X104786337Y-50398903D01*
X105014592Y-50460063D01*
X105250000Y-50480659D01*
X105485408Y-50460063D01*
X105684459Y-50406728D01*
X105748645Y-50406728D01*
X105804232Y-50438822D01*
X108338181Y-52972772D01*
X108365061Y-53013000D01*
X108374500Y-53060453D01*
X108374500Y-54101382D01*
X108359473Y-54160550D01*
X108318035Y-54205377D01*
X108260229Y-54225000D01*
X108200064Y-54214662D01*
X108078528Y-54160550D01*
X108029803Y-54138856D01*
X108029802Y-54138855D01*
X108029798Y-54138854D01*
X107844648Y-54099500D01*
X107844646Y-54099500D01*
X107655354Y-54099500D01*
X107655352Y-54099500D01*
X107470197Y-54138855D01*
X107297269Y-54215848D01*
X107144129Y-54327110D01*
X107017466Y-54467783D01*
X106922820Y-54631715D01*
X106864326Y-54811742D01*
X106844540Y-55000000D01*
X106864326Y-55188257D01*
X106926848Y-55380679D01*
X106923412Y-55381795D01*
X106933785Y-55420489D01*
X106917176Y-55482494D01*
X106871788Y-55527885D01*
X106809785Y-55544500D01*
X106734306Y-55544500D01*
X106722014Y-55545467D01*
X106697427Y-55547402D01*
X106539602Y-55593255D01*
X106398134Y-55676919D01*
X106281919Y-55793134D01*
X106198255Y-55934602D01*
X106152402Y-56092427D01*
X106149500Y-56129308D01*
X106149500Y-56560692D01*
X106152402Y-56597572D01*
X106198255Y-56755397D01*
X106289893Y-56910348D01*
X106288319Y-56911278D01*
X106309467Y-56947906D01*
X106309467Y-57012094D01*
X106288319Y-57048721D01*
X106289893Y-57049652D01*
X106198255Y-57204602D01*
X106152402Y-57362427D01*
X106149500Y-57399308D01*
X106149500Y-57830692D01*
X106152402Y-57867572D01*
X106198255Y-58025397D01*
X106289893Y-58180348D01*
X106288319Y-58181278D01*
X106309467Y-58217906D01*
X106309467Y-58282094D01*
X106288319Y-58318721D01*
X106289893Y-58319652D01*
X106198255Y-58474602D01*
X106152402Y-58632427D01*
X106149500Y-58669308D01*
X106149500Y-59100692D01*
X106152402Y-59137570D01*
X106171529Y-59203404D01*
X106174435Y-59260277D01*
X106151614Y-59312452D01*
X106107878Y-59348923D01*
X106052453Y-59362000D01*
X105574730Y-59362000D01*
X105527277Y-59352561D01*
X105487048Y-59325680D01*
X105443656Y-59282288D01*
X105294334Y-59190186D01*
X105127797Y-59135000D01*
X105025009Y-59124500D01*
X103974991Y-59124500D01*
X103872203Y-59135000D01*
X103705665Y-59190186D01*
X103556343Y-59282288D01*
X103512952Y-59325680D01*
X103472723Y-59352561D01*
X103425270Y-59362000D01*
X103285718Y-59362000D01*
X103224281Y-59345710D01*
X103178986Y-59301121D01*
X103175601Y-59295398D01*
X103118081Y-59198135D01*
X103001865Y-59081919D01*
X102927600Y-59037999D01*
X102860397Y-58998255D01*
X102702572Y-58952402D01*
X102680444Y-58950660D01*
X102665694Y-58949500D01*
X102234306Y-58949500D01*
X102222014Y-58950467D01*
X102197427Y-58952402D01*
X102039602Y-58998255D01*
X102037627Y-58999424D01*
X101974508Y-59016690D01*
X101911389Y-58999423D01*
X101910195Y-58998717D01*
X101752492Y-58952900D01*
X101750000Y-58952704D01*
X101750000Y-59218185D01*
X101732732Y-59281306D01*
X101698255Y-59339602D01*
X101652402Y-59497427D01*
X101649500Y-59534308D01*
X101649500Y-60238500D01*
X101632887Y-60300500D01*
X101587500Y-60345887D01*
X101525500Y-60362500D01*
X101474500Y-60362500D01*
X101412500Y-60345887D01*
X101367113Y-60300500D01*
X101350500Y-60238500D01*
X101350500Y-59534308D01*
X101349374Y-59520000D01*
X101347598Y-59497431D01*
X101338984Y-59467783D01*
X101301744Y-59339602D01*
X101267268Y-59281306D01*
X101250000Y-59218185D01*
X101250000Y-58952705D01*
X101249999Y-58952704D01*
X101247507Y-58952900D01*
X101089800Y-58998718D01*
X101088602Y-58999427D01*
X101025486Y-59016689D01*
X100962371Y-58999422D01*
X100960399Y-58998255D01*
X100802572Y-58952402D01*
X100780444Y-58950660D01*
X100765694Y-58949500D01*
X100334306Y-58949500D01*
X100322014Y-58950467D01*
X100297427Y-58952402D01*
X100139602Y-58998255D01*
X99998134Y-59081919D01*
X99881919Y-59198134D01*
X99798255Y-59339602D01*
X99752402Y-59497427D01*
X99749500Y-59534308D01*
X99749500Y-60690692D01*
X99752402Y-60727572D01*
X99798255Y-60885397D01*
X99837997Y-60952597D01*
X99881919Y-61026865D01*
X99998135Y-61143081D01*
X99998448Y-61143266D01*
X100006577Y-61151523D01*
X100009212Y-61154158D01*
X100009191Y-61154178D01*
X100043037Y-61188557D01*
X100059330Y-61249992D01*
X100043044Y-61311429D01*
X100009192Y-61345822D01*
X100009212Y-61345842D01*
X100006713Y-61348340D01*
X99998459Y-61356727D01*
X99998135Y-61356918D01*
X99881919Y-61473134D01*
X99848776Y-61529175D01*
X99821682Y-61574992D01*
X99821014Y-61576121D01*
X99775719Y-61620710D01*
X99714282Y-61637000D01*
X99586668Y-61637000D01*
X99526236Y-61621277D01*
X99481129Y-61578096D01*
X99467711Y-61556342D01*
X99343657Y-61432288D01*
X99194334Y-61340186D01*
X99027797Y-61285000D01*
X98925009Y-61274500D01*
X98149991Y-61274500D01*
X98047203Y-61285000D01*
X97880665Y-61340186D01*
X97731342Y-61432288D01*
X97607286Y-61556344D01*
X97605242Y-61559659D01*
X97560135Y-61602837D01*
X97499704Y-61618558D01*
X97439274Y-61602835D01*
X97394168Y-61559656D01*
X97392316Y-61556654D01*
X97268345Y-61432683D01*
X97119122Y-61340642D01*
X96952696Y-61285493D01*
X96849979Y-61275000D01*
X96712500Y-61275000D01*
X96712500Y-63724999D01*
X96849979Y-63724999D01*
X96952695Y-63714506D01*
X97119122Y-63659357D01*
X97268345Y-63567316D01*
X97392313Y-63443348D01*
X97394164Y-63440348D01*
X97439271Y-63397164D01*
X97499704Y-63381440D01*
X97560138Y-63397163D01*
X97605246Y-63440345D01*
X97607290Y-63443659D01*
X97731342Y-63567711D01*
X97731344Y-63567712D01*
X97880666Y-63659814D01*
X97992017Y-63696712D01*
X98047202Y-63714999D01*
X98057703Y-63716071D01*
X98149991Y-63725500D01*
X98925008Y-63725499D01*
X99027797Y-63714999D01*
X99194334Y-63659814D01*
X99233137Y-63635879D01*
X99290304Y-63617672D01*
X99349328Y-63628434D01*
X99396390Y-63665646D01*
X99420473Y-63720596D01*
X99415940Y-63780422D01*
X99385493Y-63872303D01*
X99375000Y-63975021D01*
X99375000Y-64250000D01*
X100588500Y-64250000D01*
X100650500Y-64266613D01*
X100695887Y-64312000D01*
X100712500Y-64374000D01*
X100712500Y-65724999D01*
X100849979Y-65724999D01*
X100952695Y-65714506D01*
X101119122Y-65659357D01*
X101268345Y-65567316D01*
X101325319Y-65510343D01*
X101374682Y-65480093D01*
X101432398Y-65475551D01*
X101485885Y-65497706D01*
X101523485Y-65541729D01*
X101537000Y-65598024D01*
X101537000Y-68401976D01*
X101523485Y-68458271D01*
X101485885Y-68502294D01*
X101432398Y-68524449D01*
X101374682Y-68519907D01*
X101325319Y-68489657D01*
X101268345Y-68432683D01*
X101119122Y-68340642D01*
X100952696Y-68285493D01*
X100849979Y-68275000D01*
X100712500Y-68275000D01*
X100712500Y-69626000D01*
X100695887Y-69688000D01*
X100650500Y-69733387D01*
X100588500Y-69750000D01*
X99375001Y-69750000D01*
X99375001Y-70024979D01*
X99385493Y-70127695D01*
X99440642Y-70294122D01*
X99532683Y-70443345D01*
X99656654Y-70567316D01*
X99805877Y-70659357D01*
X99972303Y-70714506D01*
X100075015Y-70724999D01*
X100079870Y-70724999D01*
X100146130Y-70744180D01*
X100191888Y-70795798D01*
X100202985Y-70863880D01*
X100175985Y-70927357D01*
X100160301Y-70946593D01*
X100146210Y-70973566D01*
X100138082Y-70986983D01*
X100120705Y-71011950D01*
X100097439Y-71066165D01*
X100093399Y-71074671D01*
X100066090Y-71126952D01*
X100057720Y-71156201D01*
X100052459Y-71170978D01*
X100040460Y-71198942D01*
X100028587Y-71256713D01*
X100026342Y-71265860D01*
X100010113Y-71322580D01*
X100007802Y-71352925D01*
X100005622Y-71368466D01*
X99999500Y-71398259D01*
X99999500Y-71457242D01*
X99999141Y-71466656D01*
X99996152Y-71505929D01*
X99994663Y-71525477D01*
X99998506Y-71555651D01*
X99999500Y-71571317D01*
X99999500Y-74113539D01*
X99999460Y-74116681D01*
X99997242Y-74204180D01*
X100007648Y-74262238D01*
X100008957Y-74271567D01*
X100014926Y-74330256D01*
X100024033Y-74359285D01*
X100027772Y-74374520D01*
X100033141Y-74404470D01*
X100055020Y-74459243D01*
X100058180Y-74468118D01*
X100075841Y-74524406D01*
X100090607Y-74551009D01*
X100097337Y-74565182D01*
X100108622Y-74593435D01*
X100141080Y-74642685D01*
X100145961Y-74650741D01*
X100174590Y-74702319D01*
X100194404Y-74725399D01*
X100203856Y-74737934D01*
X100220599Y-74763338D01*
X100262300Y-74805039D01*
X100268705Y-74811950D01*
X100307130Y-74856709D01*
X100307131Y-74856710D01*
X100307134Y-74856713D01*
X100331198Y-74875340D01*
X100342968Y-74885707D01*
X101654632Y-76197371D01*
X101656825Y-76199620D01*
X101717124Y-76263054D01*
X101765531Y-76296746D01*
X101773051Y-76302415D01*
X101818774Y-76339698D01*
X101845747Y-76353787D01*
X101859165Y-76361917D01*
X101884133Y-76379295D01*
X101925766Y-76397161D01*
X101938333Y-76402554D01*
X101946843Y-76406596D01*
X101999129Y-76433907D01*
X101999133Y-76433909D01*
X102028382Y-76442277D01*
X102043152Y-76447535D01*
X102071124Y-76459540D01*
X102071127Y-76459540D01*
X102071128Y-76459541D01*
X102128908Y-76471414D01*
X102138051Y-76473657D01*
X102194764Y-76489886D01*
X102225102Y-76492196D01*
X102240630Y-76494373D01*
X102270441Y-76500500D01*
X102329426Y-76500500D01*
X102338841Y-76500858D01*
X102342988Y-76501173D01*
X102397658Y-76505337D01*
X102424460Y-76501923D01*
X102427834Y-76501494D01*
X102443499Y-76500500D01*
X105037770Y-76500500D01*
X105085223Y-76509939D01*
X105125451Y-76536819D01*
X105156344Y-76567712D01*
X105305666Y-76659814D01*
X105417016Y-76696712D01*
X105472202Y-76714999D01*
X105482702Y-76716071D01*
X105574991Y-76725500D01*
X106350008Y-76725499D01*
X106452797Y-76714999D01*
X106619334Y-76659814D01*
X106768656Y-76567712D01*
X106892712Y-76443656D01*
X106894752Y-76440347D01*
X106939856Y-76397166D01*
X107000289Y-76381440D01*
X107060723Y-76397161D01*
X107105831Y-76440343D01*
X107107682Y-76443344D01*
X107231654Y-76567316D01*
X107380877Y-76659357D01*
X107547303Y-76714506D01*
X107650021Y-76725000D01*
X107787500Y-76725000D01*
X107787500Y-75750000D01*
X108287500Y-75750000D01*
X108287500Y-76724999D01*
X108424979Y-76724999D01*
X108527695Y-76714506D01*
X108694122Y-76659357D01*
X108843345Y-76567316D01*
X108967316Y-76443345D01*
X109059357Y-76294122D01*
X109114506Y-76127696D01*
X109125000Y-76024979D01*
X109125000Y-75750000D01*
X108287500Y-75750000D01*
X107787500Y-75750000D01*
X107787500Y-74275001D01*
X107650021Y-74275001D01*
X107547304Y-74285493D01*
X107380877Y-74340642D01*
X107231654Y-74432683D01*
X107107683Y-74556654D01*
X107105830Y-74559659D01*
X107060721Y-74602838D01*
X107000289Y-74618559D01*
X106939857Y-74602834D01*
X106894752Y-74559652D01*
X106892903Y-74556654D01*
X106892712Y-74556344D01*
X106892710Y-74556342D01*
X106892709Y-74556340D01*
X106768657Y-74432288D01*
X106619334Y-74340186D01*
X106460496Y-74287552D01*
X106438997Y-74275000D01*
X108287500Y-74275000D01*
X108287500Y-75250000D01*
X109124999Y-75250000D01*
X109124999Y-74975021D01*
X109114506Y-74872304D01*
X109059357Y-74705877D01*
X108967316Y-74556654D01*
X108843345Y-74432683D01*
X108694122Y-74340642D01*
X108527696Y-74285493D01*
X108424979Y-74275000D01*
X108287500Y-74275000D01*
X106438997Y-74275000D01*
X106416171Y-74261673D01*
X106386123Y-74220061D01*
X106375500Y-74169846D01*
X106375500Y-73749500D01*
X106392113Y-73687500D01*
X106437500Y-73642113D01*
X106499500Y-73625500D01*
X107303652Y-73625500D01*
X107324158Y-73627764D01*
X107327061Y-73627672D01*
X107327063Y-73627673D01*
X107394268Y-73625561D01*
X107398164Y-73625500D01*
X107425745Y-73625500D01*
X107425746Y-73625500D01*
X107429715Y-73624998D01*
X107441361Y-73624080D01*
X107485023Y-73622709D01*
X107504255Y-73617120D01*
X107523314Y-73613174D01*
X107529592Y-73612381D01*
X107543188Y-73610664D01*
X107583803Y-73594582D01*
X107594840Y-73590803D01*
X107636786Y-73578618D01*
X107654025Y-73568422D01*
X107671498Y-73559862D01*
X107690128Y-73552486D01*
X107725460Y-73526814D01*
X107735226Y-73520400D01*
X107772814Y-73498171D01*
X107772813Y-73498171D01*
X107772816Y-73498170D01*
X107786981Y-73484004D01*
X107801769Y-73471373D01*
X107817983Y-73459594D01*
X107845834Y-73425926D01*
X107853675Y-73417309D01*
X110333786Y-70937198D01*
X110349887Y-70924300D01*
X110351874Y-70922183D01*
X110351877Y-70922182D01*
X110397932Y-70873137D01*
X110400613Y-70870372D01*
X110407105Y-70863880D01*
X110420120Y-70850866D01*
X110422581Y-70847691D01*
X110430152Y-70838827D01*
X110460062Y-70806978D01*
X110469713Y-70789422D01*
X110480393Y-70773163D01*
X110492674Y-70757332D01*
X110510018Y-70717247D01*
X110515160Y-70706752D01*
X110536197Y-70668488D01*
X110541178Y-70649084D01*
X110547480Y-70630679D01*
X110555438Y-70612291D01*
X110562270Y-70569144D01*
X110564639Y-70557712D01*
X110575500Y-70515416D01*
X110575500Y-70495380D01*
X110577027Y-70475981D01*
X110578030Y-70469646D01*
X110580160Y-70456200D01*
X110576050Y-70412721D01*
X110575500Y-70401052D01*
X110575500Y-64287500D01*
X111275001Y-64287500D01*
X111275001Y-64424979D01*
X111285493Y-64527695D01*
X111340642Y-64694122D01*
X111432683Y-64843345D01*
X111556654Y-64967316D01*
X111705877Y-65059357D01*
X111872303Y-65114506D01*
X111975021Y-65125000D01*
X112250000Y-65125000D01*
X112250000Y-64287500D01*
X112750000Y-64287500D01*
X112750000Y-65124999D01*
X113024979Y-65124999D01*
X113127695Y-65114506D01*
X113294122Y-65059357D01*
X113443345Y-64967316D01*
X113567316Y-64843345D01*
X113659357Y-64694122D01*
X113714506Y-64527696D01*
X113725000Y-64424979D01*
X113725000Y-64287500D01*
X112750000Y-64287500D01*
X112250000Y-64287500D01*
X111275001Y-64287500D01*
X110575500Y-64287500D01*
X110575500Y-63086246D01*
X110587489Y-63033052D01*
X110621139Y-62990144D01*
X110669942Y-62965820D01*
X110724460Y-62964784D01*
X110898259Y-63000500D01*
X111364476Y-63000500D01*
X111420771Y-63014015D01*
X111464794Y-63051615D01*
X111486949Y-63105102D01*
X111482407Y-63162818D01*
X111452157Y-63212181D01*
X111432683Y-63231654D01*
X111340642Y-63380877D01*
X111285493Y-63547303D01*
X111275000Y-63650021D01*
X111275000Y-63787500D01*
X113724999Y-63787500D01*
X113724999Y-63650021D01*
X113714506Y-63547304D01*
X113659357Y-63380877D01*
X113567316Y-63231654D01*
X113443344Y-63107682D01*
X113440343Y-63105831D01*
X113397161Y-63060723D01*
X113381440Y-63000289D01*
X113397166Y-62939856D01*
X113440347Y-62894752D01*
X113443656Y-62892712D01*
X113567712Y-62768656D01*
X113659814Y-62619334D01*
X113714999Y-62452797D01*
X113725500Y-62350009D01*
X113725499Y-61574992D01*
X113714999Y-61472203D01*
X113659814Y-61305666D01*
X113567712Y-61156344D01*
X113567711Y-61156342D01*
X113543429Y-61132060D01*
X113511505Y-61077099D01*
X113511006Y-61013540D01*
X113542063Y-60958085D01*
X113596512Y-60925304D01*
X113647735Y-60910422D01*
X113682327Y-60905500D01*
X114031294Y-60905500D01*
X114049264Y-60906809D01*
X114053320Y-60907402D01*
X114073023Y-60910289D01*
X114122368Y-60905972D01*
X114133176Y-60905500D01*
X114138706Y-60905500D01*
X114138709Y-60905500D01*
X114169533Y-60901896D01*
X114173040Y-60901538D01*
X114175919Y-60901286D01*
X114179548Y-60900970D01*
X114190334Y-60900500D01*
X114344648Y-60900500D01*
X114468084Y-60874262D01*
X114529803Y-60861144D01*
X114702730Y-60784151D01*
X114855871Y-60672888D01*
X114982533Y-60532216D01*
X115077179Y-60368284D01*
X115135674Y-60188256D01*
X115155460Y-60000000D01*
X115135674Y-59811744D01*
X115077179Y-59631716D01*
X115077179Y-59631715D01*
X114982533Y-59467783D01*
X114855870Y-59327110D01*
X114702730Y-59215848D01*
X114529802Y-59138855D01*
X114344648Y-59099500D01*
X114344646Y-59099500D01*
X114174500Y-59099500D01*
X114112500Y-59082887D01*
X114067113Y-59037500D01*
X114050500Y-58975500D01*
X114050500Y-58669308D01*
X114047807Y-58635091D01*
X114047598Y-58632431D01*
X114001744Y-58474602D01*
X113918081Y-58333135D01*
X113918080Y-58333134D01*
X113910107Y-58319652D01*
X113911680Y-58318721D01*
X113890533Y-58282094D01*
X113890533Y-58217906D01*
X113911680Y-58181278D01*
X113910107Y-58180348D01*
X113918081Y-58166865D01*
X114001744Y-58025398D01*
X114047598Y-57867569D01*
X114050500Y-57830694D01*
X114050500Y-57399306D01*
X114047598Y-57362431D01*
X114001744Y-57204602D01*
X113918081Y-57063135D01*
X113918080Y-57063134D01*
X113910107Y-57049652D01*
X113911569Y-57048786D01*
X113890178Y-57011733D01*
X113890182Y-56947540D01*
X113911296Y-56910979D01*
X113909709Y-56910040D01*
X114001280Y-56755200D01*
X114047099Y-56597488D01*
X114047295Y-56595000D01*
X112449000Y-56595000D01*
X112387000Y-56578387D01*
X112341613Y-56533000D01*
X112325000Y-56471000D01*
X112325000Y-55545000D01*
X112825000Y-55545000D01*
X112825000Y-56095000D01*
X114047295Y-56095000D01*
X114047295Y-56094999D01*
X114047099Y-56092511D01*
X114001280Y-55934799D01*
X113917682Y-55793442D01*
X113801557Y-55677317D01*
X113660197Y-55593717D01*
X113502493Y-55547900D01*
X113465639Y-55545000D01*
X112825000Y-55545000D01*
X112325000Y-55545000D01*
X111684361Y-55545000D01*
X111647506Y-55547900D01*
X111489802Y-55593717D01*
X111348442Y-55677317D01*
X111232317Y-55793442D01*
X111231232Y-55795278D01*
X111185598Y-55840060D01*
X111123721Y-55856155D01*
X111062051Y-55839284D01*
X111016983Y-55793932D01*
X111000500Y-55732157D01*
X111000500Y-50312701D01*
X111014511Y-50255444D01*
X111053377Y-50211126D01*
X111121398Y-50163497D01*
X111121397Y-50163497D01*
X111121401Y-50163495D01*
X111268966Y-50015929D01*
X111315935Y-49986486D01*
X111371042Y-49980450D01*
X111423272Y-49999032D01*
X111462185Y-50038516D01*
X111557683Y-50193345D01*
X111681654Y-50317316D01*
X111830877Y-50409357D01*
X111997303Y-50464506D01*
X112100021Y-50475000D01*
X112500000Y-50475000D01*
X112500000Y-49250000D01*
X113000000Y-49250000D01*
X113000000Y-50474999D01*
X113399979Y-50474999D01*
X113502695Y-50464506D01*
X113669122Y-50409357D01*
X113818345Y-50317316D01*
X113942316Y-50193345D01*
X114034357Y-50044122D01*
X114089506Y-49877696D01*
X114100000Y-49774979D01*
X114100000Y-49250000D01*
X113000000Y-49250000D01*
X112500000Y-49250000D01*
X112500000Y-48750000D01*
X113000000Y-48750000D01*
X114099999Y-48750000D01*
X114099999Y-48225021D01*
X114089506Y-48122306D01*
X114047720Y-47996206D01*
X114044070Y-47931731D01*
X114073334Y-47874165D01*
X114127575Y-47839119D01*
X114192082Y-47836100D01*
X114257503Y-47850500D01*
X114396113Y-47850500D01*
X114396115Y-47850500D01*
X114465011Y-47843007D01*
X114533910Y-47835514D01*
X114709221Y-47776444D01*
X114867736Y-47681070D01*
X115002041Y-47553849D01*
X115105858Y-47400730D01*
X115174331Y-47228875D01*
X115204260Y-47046317D01*
X115194245Y-46861593D01*
X115144754Y-46683341D01*
X115058100Y-46519896D01*
X114938337Y-46378900D01*
X114938336Y-46378899D01*
X114791063Y-46266944D01*
X114623169Y-46189268D01*
X114442497Y-46149500D01*
X114303887Y-46149500D01*
X114303885Y-46149500D01*
X114166091Y-46164485D01*
X113990779Y-46223556D01*
X113832262Y-46318931D01*
X113697960Y-46446149D01*
X113594140Y-46599272D01*
X113525669Y-46771121D01*
X113510837Y-46861593D01*
X113496752Y-46947514D01*
X113495740Y-46953685D01*
X113505754Y-47138407D01*
X113555245Y-47316658D01*
X113572220Y-47348675D01*
X113586494Y-47413269D01*
X113565525Y-47476009D01*
X113515282Y-47519041D01*
X113450064Y-47530116D01*
X113399981Y-47525000D01*
X113000000Y-47525000D01*
X113000000Y-48750000D01*
X112500000Y-48750000D01*
X112500000Y-47525001D01*
X112100021Y-47525001D01*
X111997304Y-47535493D01*
X111830877Y-47590642D01*
X111681654Y-47682683D01*
X111557684Y-47806653D01*
X111462184Y-47961484D01*
X111423270Y-48000967D01*
X111371041Y-48019549D01*
X111315934Y-48013513D01*
X111268964Y-47984068D01*
X111121404Y-47836508D01*
X111121401Y-47836505D01*
X110927830Y-47700965D01*
X110713663Y-47601097D01*
X110652501Y-47584709D01*
X110485407Y-47539936D01*
X110250000Y-47519340D01*
X110014592Y-47539936D01*
X109786336Y-47601097D01*
X109572170Y-47700965D01*
X109378598Y-47836505D01*
X109211505Y-48003598D01*
X109101575Y-48160596D01*
X109057257Y-48199462D01*
X109000000Y-48213473D01*
X108942743Y-48199462D01*
X108898425Y-48160596D01*
X108788494Y-48003598D01*
X108621404Y-47836508D01*
X108621401Y-47836505D01*
X108427830Y-47700965D01*
X108213663Y-47601097D01*
X108152501Y-47584709D01*
X107985407Y-47539936D01*
X107750000Y-47519340D01*
X107514592Y-47539936D01*
X107315542Y-47593271D01*
X107251355Y-47593271D01*
X107195768Y-47561177D01*
X106750802Y-47116211D01*
X106737906Y-47100113D01*
X106686775Y-47052098D01*
X106683978Y-47049387D01*
X106664470Y-47029879D01*
X106661290Y-47027412D01*
X106652424Y-47019839D01*
X106620582Y-46989938D01*
X106603024Y-46980285D01*
X106586764Y-46969604D01*
X106570936Y-46957327D01*
X106530851Y-46939980D01*
X106520361Y-46934841D01*
X106482091Y-46913802D01*
X106462691Y-46908821D01*
X106444284Y-46902519D01*
X106425897Y-46894562D01*
X106382758Y-46887729D01*
X106371324Y-46885361D01*
X106329019Y-46874500D01*
X106308984Y-46874500D01*
X106289586Y-46872973D01*
X106282162Y-46871797D01*
X106269805Y-46869840D01*
X106269804Y-46869840D01*
X106244468Y-46872235D01*
X106226325Y-46873950D01*
X106214656Y-46874500D01*
X104582744Y-46874500D01*
X104562236Y-46872235D01*
X104492113Y-46874439D01*
X104488219Y-46874500D01*
X104460650Y-46874500D01*
X104456671Y-46875002D01*
X104445041Y-46875917D01*
X104401372Y-46877289D01*
X104382128Y-46882880D01*
X104363084Y-46886824D01*
X104343208Y-46889335D01*
X104302600Y-46905413D01*
X104291554Y-46909194D01*
X104249610Y-46921382D01*
X104249607Y-46921383D01*
X104232365Y-46931579D01*
X104214904Y-46940133D01*
X104196267Y-46947512D01*
X104160931Y-46973185D01*
X104151174Y-46979595D01*
X104113580Y-47001829D01*
X104099413Y-47015996D01*
X104084624Y-47028626D01*
X104068413Y-47040404D01*
X104040572Y-47074058D01*
X104032711Y-47082697D01*
X102527228Y-48588181D01*
X102487000Y-48615061D01*
X102439547Y-48624500D01*
X98582741Y-48624500D01*
X98562237Y-48622236D01*
X98492145Y-48624439D01*
X98488251Y-48624500D01*
X98460648Y-48624500D01*
X98456653Y-48625004D01*
X98445029Y-48625918D01*
X98401368Y-48627290D01*
X98382128Y-48632880D01*
X98363081Y-48636825D01*
X98343209Y-48639335D01*
X98302599Y-48655413D01*
X98291554Y-48659194D01*
X98249611Y-48671380D01*
X98232369Y-48681578D01*
X98214897Y-48690138D01*
X98196266Y-48697514D01*
X98160938Y-48723181D01*
X98151180Y-48729591D01*
X98113579Y-48751829D01*
X98099410Y-48765998D01*
X98084622Y-48778628D01*
X98068410Y-48790407D01*
X98040570Y-48824059D01*
X98032710Y-48832697D01*
X97677228Y-49188181D01*
X97637000Y-49215061D01*
X97589547Y-49224500D01*
X97534306Y-49224500D01*
X97522014Y-49225467D01*
X97497427Y-49227402D01*
X97339603Y-49273255D01*
X97313120Y-49288917D01*
X97250000Y-49306184D01*
X97186880Y-49288917D01*
X97160396Y-49273255D01*
X97002572Y-49227402D01*
X96980443Y-49225660D01*
X96965694Y-49224500D01*
X96534306Y-49224500D01*
X96522014Y-49225467D01*
X96497427Y-49227402D01*
X96339602Y-49273255D01*
X96198134Y-49356919D01*
X96081919Y-49473134D01*
X95998255Y-49614602D01*
X95952402Y-49772427D01*
X95949500Y-49809308D01*
X95949500Y-51190692D01*
X87500000Y-51190692D01*
X87500000Y-49897434D01*
X87513212Y-49841738D01*
X87550032Y-49797911D01*
X87602615Y-49775292D01*
X87659754Y-49778701D01*
X87709274Y-49807409D01*
X87892580Y-49981046D01*
X88173182Y-50194354D01*
X88475202Y-50376074D01*
X88795099Y-50524074D01*
X89044252Y-50608023D01*
X89129121Y-50636619D01*
X89204893Y-50653297D01*
X89473355Y-50712391D01*
X89785652Y-50746355D01*
X89823762Y-50750500D01*
X89823763Y-50750500D01*
X90176237Y-50750500D01*
X90176238Y-50750500D01*
X90210608Y-50746761D01*
X90526645Y-50712391D01*
X90870878Y-50636619D01*
X91204901Y-50524074D01*
X91524798Y-50376074D01*
X91826818Y-50194354D01*
X92107420Y-49981046D01*
X92363314Y-49738650D01*
X92591501Y-49470008D01*
X92757960Y-49224500D01*
X92789304Y-49178271D01*
X92954407Y-48866855D01*
X93084872Y-48539413D01*
X93179166Y-48199795D01*
X93179165Y-48199795D01*
X93179168Y-48199788D01*
X93236191Y-47851957D01*
X93255274Y-47500000D01*
X93236191Y-47148043D01*
X93179168Y-46800212D01*
X93146719Y-46683341D01*
X93084872Y-46460586D01*
X92954407Y-46133144D01*
X92789304Y-45821728D01*
X92591503Y-45529995D01*
X92591501Y-45529992D01*
X92363314Y-45261350D01*
X92313352Y-45214023D01*
X92281554Y-45164864D01*
X92275855Y-45106595D01*
X92297525Y-45052206D01*
X92341735Y-45013822D01*
X92398627Y-45000000D01*
X94887965Y-45000000D01*
X94954286Y-45019226D01*
G37*
%TD.AperFunction*%
%TD*%
M02*
